<svg width="175" height="342" viewBox="0 0 175 342" fill="none" xmlns="http://www.w3.org/2000/svg">
<rect width="175" height="103" transform="translate(0 2)" fill="white"/>
<rect y="2" width="175" height="10" fill="#0B0C0C"/>
<rect x="1" y="13" width="173" height="91" stroke="black" stroke-width="2"/>
<g clip-path="url(#clip0_2403_845)">
<path d="M21.231 38H18.267L15.968 28.766H15.93L13.669 38H10.648L7.057 24.434H10.04L12.187 33.668H12.225L14.581 24.434H17.374L19.692 33.782H19.73L21.953 24.434H24.879L21.231 38ZM25.9684 24.434H28.6664V29.545H28.7234C29.0654 28.975 29.5024 28.5633 30.0344 28.31C30.5664 28.044 31.0857 27.911 31.5924 27.911C32.3144 27.911 32.9034 28.0123 33.3594 28.215C33.828 28.405 34.1954 28.6773 34.4614 29.032C34.7274 29.374 34.911 29.7983 35.0124 30.305C35.1264 30.799 35.1834 31.35 35.1834 31.958V38H32.4854V32.452C32.4854 31.6413 32.3587 31.0397 32.1054 30.647C31.852 30.2417 31.4024 30.039 30.7564 30.039C30.0217 30.039 29.4897 30.2607 29.1604 30.704C28.831 31.1347 28.6664 31.8503 28.6664 32.851V38H25.9684V24.434ZM37.1171 31.198C37.1551 30.5647 37.3134 30.039 37.5921 29.621C37.8707 29.203 38.2254 28.8673 38.6561 28.614C39.0867 28.3607 39.5681 28.1833 40.1001 28.082C40.6447 27.968 41.1894 27.911 41.7341 27.911C42.2281 27.911 42.7284 27.949 43.2351 28.025C43.7417 28.0883 44.2041 28.2213 44.6221 28.424C45.0401 28.6267 45.3821 28.9117 45.6481 29.279C45.9141 29.6337 46.0471 30.1087 46.0471 30.704V35.815C46.0471 36.2583 46.0724 36.6827 46.1231 37.088C46.1737 37.4933 46.2624 37.7973 46.3891 38H43.6531C43.6024 37.848 43.5581 37.696 43.5201 37.544C43.4947 37.3793 43.4757 37.2147 43.4631 37.05C43.0324 37.4933 42.5257 37.8037 41.9431 37.981C41.3604 38.1583 40.7651 38.247 40.1571 38.247C39.6884 38.247 39.2514 38.19 38.8461 38.076C38.4407 37.962 38.0861 37.7847 37.7821 37.544C37.4781 37.3033 37.2374 36.9993 37.0601 36.632C36.8954 36.2647 36.8131 35.8277 36.8131 35.321C36.8131 34.7637 36.9081 34.3077 37.0981 33.953C37.3007 33.5857 37.5541 33.2943 37.8581 33.079C38.1747 32.8637 38.5294 32.7053 38.9221 32.604C39.3274 32.49 39.7327 32.4013 40.1381 32.338C40.5434 32.2747 40.9424 32.224 41.3351 32.186C41.7277 32.148 42.0761 32.091 42.3801 32.015C42.6841 31.939 42.9247 31.8313 43.1021 31.692C43.2794 31.54 43.3617 31.3247 43.3491 31.046C43.3491 30.7547 43.2984 30.5267 43.1971 30.362C43.1084 30.1847 42.9817 30.0517 42.8171 29.963C42.6651 29.8617 42.4814 29.7983 42.2661 29.773C42.0634 29.735 41.8417 29.716 41.6011 29.716C41.0691 29.716 40.6511 29.83 40.3471 30.058C40.0431 30.286 39.8657 30.666 39.8151 31.198H37.1171ZM43.3491 33.193C43.2351 33.2943 43.0894 33.3767 42.9121 33.44C42.7474 33.4907 42.5637 33.535 42.3611 33.573C42.1711 33.611 41.9684 33.6427 41.7531 33.668C41.5377 33.6933 41.3224 33.725 41.1071 33.763C40.9044 33.801 40.7017 33.8517 40.4991 33.915C40.3091 33.9783 40.1381 34.067 39.9861 34.181C39.8467 34.2823 39.7327 34.4153 39.6441 34.58C39.5554 34.7447 39.5111 34.9537 39.5111 35.207C39.5111 35.4477 39.5554 35.6503 39.6441 35.815C39.7327 35.9797 39.8531 36.1127 40.0051 36.214C40.1571 36.3027 40.3344 36.366 40.5371 36.404C40.7397 36.442 40.9487 36.461 41.1641 36.461C41.6961 36.461 42.1077 36.3723 42.3991 36.195C42.6904 36.0177 42.9057 35.8087 43.0451 35.568C43.1844 35.3147 43.2667 35.0613 43.2921 34.808C43.3301 34.5547 43.3491 34.352 43.3491 34.2V33.193ZM51.5612 28.177H53.5372V29.982H51.5612V34.846C51.5612 35.302 51.6372 35.606 51.7892 35.758C51.9412 35.91 52.2452 35.986 52.7012 35.986C52.8532 35.986 52.9989 35.9797 53.1382 35.967C53.2776 35.9543 53.4106 35.9353 53.5372 35.91V38C53.3092 38.038 53.0559 38.0633 52.7772 38.076C52.4986 38.0887 52.2262 38.095 51.9602 38.095C51.5422 38.095 51.1432 38.0633 50.7632 38C50.3959 37.9493 50.0666 37.8417 49.7752 37.677C49.4966 37.5123 49.2749 37.278 49.1102 36.974C48.9456 36.67 48.8632 36.271 48.8632 35.777V29.982H47.2292V28.177H48.8632V25.232H51.5612V28.177ZM62.883 26.657H60.185V24.434H62.883V26.657ZM60.185 28.177H62.883V38H60.185V28.177ZM67.0974 34.808C67.0974 35.0993 67.1544 35.3527 67.2684 35.568C67.3951 35.7707 67.5534 35.9417 67.7434 36.081C67.9334 36.2077 68.1488 36.3027 68.3894 36.366C68.6428 36.4293 68.9024 36.461 69.1684 36.461C69.3584 36.461 69.5548 36.442 69.7574 36.404C69.9728 36.3533 70.1628 36.2837 70.3274 36.195C70.5048 36.0937 70.6504 35.967 70.7644 35.815C70.8784 35.6503 70.9354 35.4477 70.9354 35.207C70.9354 34.8017 70.6631 34.4977 70.1184 34.295C69.5864 34.0923 68.8391 33.8897 67.8764 33.687C67.4838 33.5983 67.0974 33.497 66.7174 33.383C66.3501 33.2563 66.0208 33.098 65.7294 32.908C65.4381 32.7053 65.2038 32.4583 65.0264 32.167C64.8491 31.863 64.7604 31.4957 64.7604 31.065C64.7604 30.4317 64.8808 29.9123 65.1214 29.507C65.3748 29.1017 65.7041 28.785 66.1094 28.557C66.5148 28.3163 66.9708 28.1517 67.4774 28.063C67.9841 27.9617 68.5034 27.911 69.0354 27.911C69.5674 27.911 70.0804 27.9617 70.5744 28.063C71.0811 28.1643 71.5308 28.3353 71.9234 28.576C72.3161 28.8167 72.6391 29.1397 72.8924 29.545C73.1584 29.9377 73.3168 30.438 73.3674 31.046H70.8024C70.7644 30.5267 70.5681 30.1783 70.2134 30.001C69.8588 29.811 69.4408 29.716 68.9594 29.716C68.8074 29.716 68.6428 29.7287 68.4654 29.754C68.2881 29.7667 68.1234 29.8047 67.9714 29.868C67.8321 29.9313 67.7118 30.0263 67.6104 30.153C67.5091 30.267 67.4584 30.4253 67.4584 30.628C67.4584 30.8687 67.5471 31.065 67.7244 31.217C67.9018 31.369 68.1298 31.4957 68.4084 31.597C68.6998 31.6857 69.0291 31.768 69.3964 31.844C69.7638 31.92 70.1374 32.0023 70.5174 32.091C70.9101 32.1797 71.2901 32.2873 71.6574 32.414C72.0374 32.5407 72.3731 32.7117 72.6644 32.927C72.9558 33.1297 73.1901 33.3893 73.3674 33.706C73.5448 34.01 73.6334 34.39 73.6334 34.846C73.6334 35.492 73.5004 36.0367 73.2344 36.48C72.9811 36.9107 72.6454 37.259 72.2274 37.525C71.8094 37.791 71.3281 37.9747 70.7834 38.076C70.2514 38.19 69.7068 38.247 69.1494 38.247C68.5794 38.247 68.0221 38.19 67.4774 38.076C66.9328 37.962 66.4451 37.772 66.0144 37.506C65.5964 37.24 65.2481 36.8917 64.9694 36.461C64.7034 36.0177 64.5578 35.4667 64.5324 34.808H67.0974ZM85.3456 39.216C85.0543 40.014 84.6489 40.584 84.1296 40.926C83.6103 41.268 82.8883 41.439 81.9636 41.439C81.6849 41.439 81.4063 41.4263 81.1276 41.401C80.8616 41.3883 80.5893 41.3693 80.3106 41.344V39.121C80.5639 39.1463 80.8236 39.1717 81.0896 39.197C81.3556 39.2223 81.6216 39.2287 81.8876 39.216C82.2423 39.178 82.5019 39.0387 82.6666 38.798C82.8439 38.5573 82.9326 38.2913 82.9326 38C82.9326 37.7847 82.8946 37.582 82.8186 37.392L79.3796 28.177H82.2486L84.4716 34.903H84.5096L86.6566 28.177H89.4496L85.3456 39.216ZM92.7471 33.098C92.7471 33.4907 92.7851 33.877 92.8611 34.257C92.9371 34.6243 93.0638 34.96 93.2411 35.264C93.4311 35.5553 93.6781 35.7897 93.9821 35.967C94.2861 36.1443 94.6661 36.233 95.1221 36.233C95.5781 36.233 95.9581 36.1443 96.2621 35.967C96.5788 35.7897 96.8258 35.5553 97.0031 35.264C97.1931 34.96 97.3261 34.6243 97.4021 34.257C97.4781 33.877 97.5161 33.4907 97.5161 33.098C97.5161 32.7053 97.4781 32.319 97.4021 31.939C97.3261 31.559 97.1931 31.2233 97.0031 30.932C96.8258 30.6407 96.5788 30.4063 96.2621 30.229C95.9581 30.039 95.5781 29.944 95.1221 29.944C94.6661 29.944 94.2861 30.039 93.9821 30.229C93.6781 30.4063 93.4311 30.6407 93.2411 30.932C93.0638 31.2233 92.9371 31.559 92.8611 31.939C92.7851 32.319 92.7471 32.7053 92.7471 33.098ZM90.0491 33.098C90.0491 32.3127 90.1695 31.6033 90.4101 30.97C90.6508 30.324 90.9928 29.7793 91.4361 29.336C91.8795 28.88 92.4115 28.5317 93.0321 28.291C93.6528 28.0377 94.3495 27.911 95.1221 27.911C95.8948 27.911 96.5915 28.0377 97.2121 28.291C97.8455 28.5317 98.3838 28.88 98.8271 29.336C99.2705 29.7793 99.6125 30.324 99.8531 30.97C100.094 31.6033 100.214 32.3127 100.214 33.098C100.214 33.8833 100.094 34.5927 99.8531 35.226C99.6125 35.8593 99.2705 36.404 98.8271 36.86C98.3838 37.3033 97.8455 37.6453 97.2121 37.886C96.5915 38.1267 95.8948 38.247 95.1221 38.247C94.3495 38.247 93.6528 38.1267 93.0321 37.886C92.4115 37.6453 91.8795 37.3033 91.4361 36.86C90.9928 36.404 90.6508 35.8593 90.4101 35.226C90.1695 34.5927 90.0491 33.8833 90.0491 33.098ZM111.183 38H108.618V36.632H108.561C108.219 37.202 107.776 37.6137 107.231 37.867C106.687 38.1203 106.129 38.247 105.559 38.247C104.837 38.247 104.242 38.152 103.773 37.962C103.317 37.772 102.956 37.506 102.69 37.164C102.424 36.8093 102.234 36.385 102.12 35.891C102.019 35.3843 101.968 34.827 101.968 34.219V28.177H104.666V33.725C104.666 34.5357 104.793 35.1437 105.046 35.549C105.3 35.9417 105.749 36.138 106.395 36.138C107.13 36.138 107.662 35.9227 107.991 35.492C108.321 35.0487 108.485 34.3267 108.485 33.326V28.177H111.183V38ZM113.231 28.177H115.796V30.001H115.834C115.961 29.697 116.132 29.4183 116.347 29.165C116.562 28.899 116.809 28.6773 117.088 28.5C117.367 28.31 117.664 28.1643 117.981 28.063C118.298 27.9617 118.627 27.911 118.969 27.911C119.146 27.911 119.343 27.9427 119.558 28.006V30.514C119.431 30.4887 119.279 30.4697 119.102 30.457C118.925 30.4317 118.754 30.419 118.589 30.419C118.095 30.419 117.677 30.5013 117.335 30.666C116.993 30.8307 116.714 31.0587 116.499 31.35C116.296 31.6287 116.151 31.958 116.062 32.338C115.973 32.718 115.929 33.1297 115.929 33.573V38H113.231V28.177ZM126.493 29.982H124.878V28.177H126.493V27.417C126.493 26.543 126.765 25.8273 127.31 25.27C127.855 24.7127 128.678 24.434 129.78 24.434C130.021 24.434 130.261 24.4467 130.502 24.472C130.743 24.4847 130.977 24.4973 131.205 24.51V26.524C130.888 26.486 130.559 26.467 130.217 26.467C129.85 26.467 129.584 26.5557 129.419 26.733C129.267 26.8977 129.191 27.1827 129.191 27.588V28.177H131.053V29.982H129.191V38H126.493V29.982ZM141.446 38H138.881V36.632H138.824C138.482 37.202 138.039 37.6137 137.494 37.867C136.949 38.1203 136.392 38.247 135.822 38.247C135.1 38.247 134.505 38.152 134.036 37.962C133.58 37.772 133.219 37.506 132.953 37.164C132.687 36.8093 132.497 36.385 132.383 35.891C132.282 35.3843 132.231 34.827 132.231 34.219V28.177H134.929V33.725C134.929 34.5357 135.056 35.1437 135.309 35.549C135.562 35.9417 136.012 36.138 136.658 36.138C137.393 36.138 137.925 35.9227 138.254 35.492C138.583 35.0487 138.748 34.3267 138.748 33.326V28.177H141.446V38ZM143.57 24.434H146.268V38H143.57V24.434ZM148.468 24.434H151.166V38H148.468V24.434ZM8.026 51.177H10.591V52.545H10.648C10.99 51.975 11.4333 51.5633 11.978 51.31C12.5227 51.044 13.08 50.911 13.65 50.911C14.372 50.911 14.961 51.0123 15.417 51.215C15.8857 51.405 16.253 51.6773 16.519 52.032C16.785 52.374 16.9687 52.7983 17.07 53.305C17.184 53.799 17.241 54.35 17.241 54.958V61H14.543V55.452C14.543 54.6413 14.4163 54.0397 14.163 53.647C13.9097 53.2417 13.46 53.039 12.814 53.039C12.0793 53.039 11.5473 53.2607 11.218 53.704C10.8887 54.1347 10.724 54.8503 10.724 55.851V61H8.026V51.177ZM19.1747 54.198C19.2127 53.5647 19.371 53.039 19.6497 52.621C19.9284 52.203 20.283 51.8673 20.7137 51.614C21.1444 51.3607 21.6257 51.1833 22.1577 51.082C22.7024 50.968 23.247 50.911 23.7917 50.911C24.2857 50.911 24.786 50.949 25.2927 51.025C25.7994 51.0883 26.2617 51.2213 26.6797 51.424C27.0977 51.6267 27.4397 51.9117 27.7057 52.279C27.9717 52.6337 28.1047 53.1087 28.1047 53.704V58.815C28.1047 59.2583 28.13 59.6827 28.1807 60.088C28.2314 60.4933 28.32 60.7973 28.4467 61H25.7107C25.66 60.848 25.6157 60.696 25.5777 60.544C25.5524 60.3793 25.5334 60.2147 25.5207 60.05C25.09 60.4933 24.5834 60.8037 24.0007 60.981C23.418 61.1583 22.8227 61.247 22.2147 61.247C21.746 61.247 21.309 61.19 20.9037 61.076C20.4984 60.962 20.1437 60.7847 19.8397 60.544C19.5357 60.3033 19.295 59.9993 19.1177 59.632C18.953 59.2647 18.8707 58.8277 18.8707 58.321C18.8707 57.7637 18.9657 57.3077 19.1557 56.953C19.3584 56.5857 19.6117 56.2943 19.9157 56.079C20.2324 55.8637 20.587 55.7053 20.9797 55.604C21.385 55.49 21.7904 55.4013 22.1957 55.338C22.601 55.2747 23 55.224 23.3927 55.186C23.7854 55.148 24.1337 55.091 24.4377 55.015C24.7417 54.939 24.9824 54.8313 25.1597 54.692C25.337 54.54 25.4194 54.3247 25.4067 54.046C25.4067 53.7547 25.356 53.5267 25.2547 53.362C25.166 53.1847 25.0394 53.0517 24.8747 52.963C24.7227 52.8617 24.539 52.7983 24.3237 52.773C24.121 52.735 23.8994 52.716 23.6587 52.716C23.1267 52.716 22.7087 52.83 22.4047 53.058C22.1007 53.286 21.9234 53.666 21.8727 54.198H19.1747ZM25.4067 56.193C25.2927 56.2943 25.147 56.3767 24.9697 56.44C24.805 56.4907 24.6214 56.535 24.4187 56.573C24.2287 56.611 24.026 56.6427 23.8107 56.668C23.5954 56.6933 23.38 56.725 23.1647 56.763C22.962 56.801 22.7594 56.8517 22.5567 56.915C22.3667 56.9783 22.1957 57.067 22.0437 57.181C21.9044 57.2823 21.7904 57.4153 21.7017 57.58C21.613 57.7447 21.5687 57.9537 21.5687 58.207C21.5687 58.4477 21.613 58.6503 21.7017 58.815C21.7904 58.9797 21.9107 59.1127 22.0627 59.214C22.2147 59.3027 22.392 59.366 22.5947 59.404C22.7974 59.442 23.0064 59.461 23.2217 59.461C23.7537 59.461 24.1654 59.3723 24.4567 59.195C24.748 59.0177 24.9634 58.8087 25.1027 58.568C25.242 58.3147 25.3244 58.0613 25.3497 57.808C25.3877 57.5547 25.4067 57.352 25.4067 57.2V56.193ZM30.2749 51.177H32.8209V52.507H32.8589C33.2135 52.0003 33.6379 51.6077 34.1319 51.329C34.6385 51.0503 35.2149 50.911 35.8609 50.911C36.4815 50.911 37.0452 51.0313 37.5519 51.272C38.0712 51.5127 38.4639 51.937 38.7299 52.545C39.0212 52.1143 39.4139 51.7343 39.9079 51.405C40.4145 51.0757 41.0099 50.911 41.6939 50.911C42.2132 50.911 42.6945 50.9743 43.1379 51.101C43.5812 51.2277 43.9612 51.4303 44.2779 51.709C44.5945 51.9877 44.8415 52.355 45.0189 52.811C45.1962 53.2543 45.2849 53.7927 45.2849 54.426V61H42.5869V55.433C42.5869 55.1037 42.5742 54.7933 42.5489 54.502C42.5235 54.2107 42.4539 53.9573 42.3399 53.742C42.2259 53.5267 42.0549 53.3557 41.8269 53.229C41.6115 53.1023 41.3139 53.039 40.9339 53.039C40.5539 53.039 40.2435 53.115 40.0029 53.267C39.7749 53.4063 39.5912 53.5963 39.4519 53.837C39.3252 54.065 39.2365 54.331 39.1859 54.635C39.1479 54.9263 39.1289 55.224 39.1289 55.528V61H36.4309V55.49C36.4309 55.1987 36.4245 54.9137 36.4119 54.635C36.3992 54.3437 36.3422 54.0777 36.2409 53.837C36.1522 53.5963 35.9939 53.4063 35.7659 53.267C35.5505 53.115 35.2275 53.039 34.7969 53.039C34.6702 53.039 34.4992 53.0707 34.2839 53.134C34.0812 53.1847 33.8785 53.2923 33.6759 53.457C33.4859 53.609 33.3212 53.837 33.1819 54.141C33.0425 54.4323 32.9729 54.8187 32.9729 55.3V61H30.2749V51.177ZM54.0296 55.034C53.9029 54.35 53.6749 53.8307 53.3456 53.476C53.0289 53.1213 52.5413 52.944 51.8826 52.944C51.4519 52.944 51.0909 53.02 50.7996 53.172C50.5209 53.3113 50.2929 53.4887 50.1156 53.704C49.9509 53.9193 49.8306 54.1473 49.7546 54.388C49.6913 54.6287 49.6533 54.844 49.6406 55.034H54.0296ZM49.6406 56.744C49.6786 57.618 49.9003 58.2513 50.3056 58.644C50.7109 59.0367 51.2936 59.233 52.0536 59.233C52.5983 59.233 53.0669 59.1 53.4596 58.834C53.8523 58.5553 54.0929 58.264 54.1816 57.96H56.5566C56.1766 59.138 55.5939 59.9803 54.8086 60.487C54.0233 60.9937 53.0733 61.247 51.9586 61.247C51.1859 61.247 50.4893 61.1267 49.8686 60.886C49.2479 60.6327 48.7223 60.278 48.2916 59.822C47.8609 59.366 47.5253 58.8213 47.2846 58.188C47.0566 57.5547 46.9426 56.858 46.9426 56.098C46.9426 55.3633 47.0629 54.6793 47.3036 54.046C47.5443 53.4127 47.8863 52.868 48.3296 52.412C48.7729 51.9433 49.2986 51.576 49.9066 51.31C50.5273 51.044 51.2113 50.911 51.9586 50.911C52.7946 50.911 53.5229 51.0757 54.1436 51.405C54.7643 51.7217 55.2709 52.1523 55.6636 52.697C56.0689 53.2417 56.3603 53.8623 56.5376 54.559C56.7149 55.2557 56.7783 55.984 56.7276 56.744H49.6406ZM63.9518 58.074V61H60.9688V58.074H63.9518ZM57.9098 51.804C57.9224 51.12 58.0364 50.493 58.2518 49.923C58.4798 49.353 58.7901 48.859 59.1828 48.441C59.5881 48.023 60.0694 47.7 60.6268 47.472C61.1968 47.2313 61.8301 47.111 62.5268 47.111C63.4261 47.111 64.1734 47.2377 64.7688 47.491C65.3768 47.7317 65.8644 48.0357 66.2318 48.403C66.5991 48.7703 66.8588 49.1693 67.0108 49.6C67.1754 50.018 67.2578 50.4107 67.2578 50.778C67.2578 51.386 67.1754 51.8863 67.0108 52.279C66.8588 52.6717 66.6624 53.0073 66.4218 53.286C66.1938 53.5647 65.9341 53.8053 65.6428 54.008C65.3641 54.198 65.0981 54.3943 64.8448 54.597C64.5914 54.787 64.3634 55.0087 64.1608 55.262C63.9708 55.5153 63.8504 55.832 63.7998 56.212V56.934H61.2348V56.079C61.2728 55.5343 61.3741 55.0783 61.5388 54.711C61.7161 54.3437 61.9188 54.0333 62.1468 53.78C62.3748 53.514 62.6154 53.286 62.8688 53.096C63.1221 52.906 63.3564 52.716 63.5718 52.526C63.7871 52.336 63.9581 52.127 64.0848 51.899C64.2241 51.671 64.2874 51.386 64.2748 51.044C64.2748 50.4613 64.1291 50.0307 63.8378 49.752C63.5591 49.4733 63.1664 49.334 62.6598 49.334C62.3178 49.334 62.0201 49.4037 61.7668 49.543C61.5261 49.6697 61.3234 49.847 61.1588 50.075C61.0068 50.2903 60.8928 50.55 60.8168 50.854C60.7408 51.1453 60.7028 51.462 60.7028 51.804H57.9098Z" fill="#231F20"/>
</g>
<rect x="7.5" y="70.5" width="157" height="9" fill="white" stroke="#0B0C0C"/>
<g filter="url(#filter0_i_2403_845)">
<rect x="7" y="85" width="26" height="10" fill="#00823B"/>
</g>
<rect width="175" height="103" transform="translate(0 185)" fill="white"/>
<rect y="185" width="175" height="10" fill="#0B0C0C"/>
<rect x="1" y="196" width="173" height="91" stroke="black" stroke-width="2"/>
<g clip-path="url(#clip1_2403_845)">
<path d="M21.231 221H18.267L15.968 211.766H15.93L13.669 221H10.648L7.057 207.434H10.04L12.187 216.668H12.225L14.581 207.434H17.374L19.692 216.782H19.73L21.953 207.434H24.879L21.231 221ZM25.9684 207.434H28.6664V212.545H28.7234C29.0654 211.975 29.5024 211.563 30.0344 211.31C30.5664 211.044 31.0857 210.911 31.5924 210.911C32.3144 210.911 32.9034 211.012 33.3594 211.215C33.828 211.405 34.1954 211.677 34.4614 212.032C34.7274 212.374 34.911 212.798 35.0124 213.305C35.1264 213.799 35.1834 214.35 35.1834 214.958V221H32.4854V215.452C32.4854 214.641 32.3587 214.04 32.1054 213.647C31.852 213.242 31.4024 213.039 30.7564 213.039C30.0217 213.039 29.4897 213.261 29.1604 213.704C28.831 214.135 28.6664 214.85 28.6664 215.851V221H25.9684V207.434ZM37.1171 214.198C37.1551 213.565 37.3134 213.039 37.5921 212.621C37.8707 212.203 38.2254 211.867 38.6561 211.614C39.0867 211.361 39.5681 211.183 40.1001 211.082C40.6447 210.968 41.1894 210.911 41.7341 210.911C42.2281 210.911 42.7284 210.949 43.2351 211.025C43.7417 211.088 44.2041 211.221 44.6221 211.424C45.0401 211.627 45.3821 211.912 45.6481 212.279C45.9141 212.634 46.0471 213.109 46.0471 213.704V218.815C46.0471 219.258 46.0724 219.683 46.1231 220.088C46.1737 220.493 46.2624 220.797 46.3891 221H43.6531C43.6024 220.848 43.5581 220.696 43.5201 220.544C43.4947 220.379 43.4757 220.215 43.4631 220.05C43.0324 220.493 42.5257 220.804 41.9431 220.981C41.3604 221.158 40.7651 221.247 40.1571 221.247C39.6884 221.247 39.2514 221.19 38.8461 221.076C38.4407 220.962 38.0861 220.785 37.7821 220.544C37.4781 220.303 37.2374 219.999 37.0601 219.632C36.8954 219.265 36.8131 218.828 36.8131 218.321C36.8131 217.764 36.9081 217.308 37.0981 216.953C37.3007 216.586 37.5541 216.294 37.8581 216.079C38.1747 215.864 38.5294 215.705 38.9221 215.604C39.3274 215.49 39.7327 215.401 40.1381 215.338C40.5434 215.275 40.9424 215.224 41.3351 215.186C41.7277 215.148 42.0761 215.091 42.3801 215.015C42.6841 214.939 42.9247 214.831 43.1021 214.692C43.2794 214.54 43.3617 214.325 43.3491 214.046C43.3491 213.755 43.2984 213.527 43.1971 213.362C43.1084 213.185 42.9817 213.052 42.8171 212.963C42.6651 212.862 42.4814 212.798 42.2661 212.773C42.0634 212.735 41.8417 212.716 41.6011 212.716C41.0691 212.716 40.6511 212.83 40.3471 213.058C40.0431 213.286 39.8657 213.666 39.8151 214.198H37.1171ZM43.3491 216.193C43.2351 216.294 43.0894 216.377 42.9121 216.44C42.7474 216.491 42.5637 216.535 42.3611 216.573C42.1711 216.611 41.9684 216.643 41.7531 216.668C41.5377 216.693 41.3224 216.725 41.1071 216.763C40.9044 216.801 40.7017 216.852 40.4991 216.915C40.3091 216.978 40.1381 217.067 39.9861 217.181C39.8467 217.282 39.7327 217.415 39.6441 217.58C39.5554 217.745 39.5111 217.954 39.5111 218.207C39.5111 218.448 39.5554 218.65 39.6441 218.815C39.7327 218.98 39.8531 219.113 40.0051 219.214C40.1571 219.303 40.3344 219.366 40.5371 219.404C40.7397 219.442 40.9487 219.461 41.1641 219.461C41.6961 219.461 42.1077 219.372 42.3991 219.195C42.6904 219.018 42.9057 218.809 43.0451 218.568C43.1844 218.315 43.2667 218.061 43.2921 217.808C43.3301 217.555 43.3491 217.352 43.3491 217.2V216.193ZM51.5612 211.177H53.5372V212.982H51.5612V217.846C51.5612 218.302 51.6372 218.606 51.7892 218.758C51.9412 218.91 52.2452 218.986 52.7012 218.986C52.8532 218.986 52.9989 218.98 53.1382 218.967C53.2776 218.954 53.4106 218.935 53.5372 218.91V221C53.3092 221.038 53.0559 221.063 52.7772 221.076C52.4986 221.089 52.2262 221.095 51.9602 221.095C51.5422 221.095 51.1432 221.063 50.7632 221C50.3959 220.949 50.0666 220.842 49.7752 220.677C49.4966 220.512 49.2749 220.278 49.1102 219.974C48.9456 219.67 48.8632 219.271 48.8632 218.777V212.982H47.2292V211.177H48.8632V208.232H51.5612V211.177ZM62.883 209.657H60.185V207.434H62.883V209.657ZM60.185 211.177H62.883V221H60.185V211.177ZM67.0974 217.808C67.0974 218.099 67.1544 218.353 67.2684 218.568C67.3951 218.771 67.5534 218.942 67.7434 219.081C67.9334 219.208 68.1488 219.303 68.3894 219.366C68.6428 219.429 68.9024 219.461 69.1684 219.461C69.3584 219.461 69.5548 219.442 69.7574 219.404C69.9728 219.353 70.1628 219.284 70.3274 219.195C70.5048 219.094 70.6504 218.967 70.7644 218.815C70.8784 218.65 70.9354 218.448 70.9354 218.207C70.9354 217.802 70.6631 217.498 70.1184 217.295C69.5864 217.092 68.8391 216.89 67.8764 216.687C67.4838 216.598 67.0974 216.497 66.7174 216.383C66.3501 216.256 66.0208 216.098 65.7294 215.908C65.4381 215.705 65.2038 215.458 65.0264 215.167C64.8491 214.863 64.7604 214.496 64.7604 214.065C64.7604 213.432 64.8808 212.912 65.1214 212.507C65.3748 212.102 65.7041 211.785 66.1094 211.557C66.5148 211.316 66.9708 211.152 67.4774 211.063C67.9841 210.962 68.5034 210.911 69.0354 210.911C69.5674 210.911 70.0804 210.962 70.5744 211.063C71.0811 211.164 71.5308 211.335 71.9234 211.576C72.3161 211.817 72.6391 212.14 72.8924 212.545C73.1584 212.938 73.3168 213.438 73.3674 214.046H70.8024C70.7644 213.527 70.5681 213.178 70.2134 213.001C69.8588 212.811 69.4408 212.716 68.9594 212.716C68.8074 212.716 68.6428 212.729 68.4654 212.754C68.2881 212.767 68.1234 212.805 67.9714 212.868C67.8321 212.931 67.7118 213.026 67.6104 213.153C67.5091 213.267 67.4584 213.425 67.4584 213.628C67.4584 213.869 67.5471 214.065 67.7244 214.217C67.9018 214.369 68.1298 214.496 68.4084 214.597C68.6998 214.686 69.0291 214.768 69.3964 214.844C69.7638 214.92 70.1374 215.002 70.5174 215.091C70.9101 215.18 71.2901 215.287 71.6574 215.414C72.0374 215.541 72.3731 215.712 72.6644 215.927C72.9558 216.13 73.1901 216.389 73.3674 216.706C73.5448 217.01 73.6334 217.39 73.6334 217.846C73.6334 218.492 73.5004 219.037 73.2344 219.48C72.9811 219.911 72.6454 220.259 72.2274 220.525C71.8094 220.791 71.3281 220.975 70.7834 221.076C70.2514 221.19 69.7068 221.247 69.1494 221.247C68.5794 221.247 68.0221 221.19 67.4774 221.076C66.9328 220.962 66.4451 220.772 66.0144 220.506C65.5964 220.24 65.2481 219.892 64.9694 219.461C64.7034 219.018 64.5578 218.467 64.5324 217.808H67.0974ZM85.3456 222.216C85.0543 223.014 84.6489 223.584 84.1296 223.926C83.6103 224.268 82.8883 224.439 81.9636 224.439C81.6849 224.439 81.4063 224.426 81.1276 224.401C80.8616 224.388 80.5893 224.369 80.3106 224.344V222.121C80.5639 222.146 80.8236 222.172 81.0896 222.197C81.3556 222.222 81.6216 222.229 81.8876 222.216C82.2423 222.178 82.5019 222.039 82.6666 221.798C82.8439 221.557 82.9326 221.291 82.9326 221C82.9326 220.785 82.8946 220.582 82.8186 220.392L79.3796 211.177H82.2486L84.4716 217.903H84.5096L86.6566 211.177H89.4496L85.3456 222.216ZM92.7471 216.098C92.7471 216.491 92.7851 216.877 92.8611 217.257C92.9371 217.624 93.0638 217.96 93.2411 218.264C93.4311 218.555 93.6781 218.79 93.9821 218.967C94.2861 219.144 94.6661 219.233 95.1221 219.233C95.5781 219.233 95.9581 219.144 96.2621 218.967C96.5788 218.79 96.8258 218.555 97.0031 218.264C97.1931 217.96 97.3261 217.624 97.4021 217.257C97.4781 216.877 97.5161 216.491 97.5161 216.098C97.5161 215.705 97.4781 215.319 97.4021 214.939C97.3261 214.559 97.1931 214.223 97.0031 213.932C96.8258 213.641 96.5788 213.406 96.2621 213.229C95.9581 213.039 95.5781 212.944 95.1221 212.944C94.6661 212.944 94.2861 213.039 93.9821 213.229C93.6781 213.406 93.4311 213.641 93.2411 213.932C93.0638 214.223 92.9371 214.559 92.8611 214.939C92.7851 215.319 92.7471 215.705 92.7471 216.098ZM90.0491 216.098C90.0491 215.313 90.1695 214.603 90.4101 213.97C90.6508 213.324 90.9928 212.779 91.4361 212.336C91.8795 211.88 92.4115 211.532 93.0321 211.291C93.6528 211.038 94.3495 210.911 95.1221 210.911C95.8948 210.911 96.5915 211.038 97.2121 211.291C97.8455 211.532 98.3838 211.88 98.8271 212.336C99.2705 212.779 99.6125 213.324 99.8531 213.97C100.094 214.603 100.214 215.313 100.214 216.098C100.214 216.883 100.094 217.593 99.8531 218.226C99.6125 218.859 99.2705 219.404 98.8271 219.86C98.3838 220.303 97.8455 220.645 97.2121 220.886C96.5915 221.127 95.8948 221.247 95.1221 221.247C94.3495 221.247 93.6528 221.127 93.0321 220.886C92.4115 220.645 91.8795 220.303 91.4361 219.86C90.9928 219.404 90.6508 218.859 90.4101 218.226C90.1695 217.593 90.0491 216.883 90.0491 216.098ZM111.183 221H108.618V219.632H108.561C108.219 220.202 107.776 220.614 107.231 220.867C106.687 221.12 106.129 221.247 105.559 221.247C104.837 221.247 104.242 221.152 103.773 220.962C103.317 220.772 102.956 220.506 102.69 220.164C102.424 219.809 102.234 219.385 102.12 218.891C102.019 218.384 101.968 217.827 101.968 217.219V211.177H104.666V216.725C104.666 217.536 104.793 218.144 105.046 218.549C105.3 218.942 105.749 219.138 106.395 219.138C107.13 219.138 107.662 218.923 107.991 218.492C108.321 218.049 108.485 217.327 108.485 216.326V211.177H111.183V221ZM113.231 211.177H115.796V213.001H115.834C115.961 212.697 116.132 212.418 116.347 212.165C116.562 211.899 116.809 211.677 117.088 211.5C117.367 211.31 117.664 211.164 117.981 211.063C118.298 210.962 118.627 210.911 118.969 210.911C119.146 210.911 119.343 210.943 119.558 211.006V213.514C119.431 213.489 119.279 213.47 119.102 213.457C118.925 213.432 118.754 213.419 118.589 213.419C118.095 213.419 117.677 213.501 117.335 213.666C116.993 213.831 116.714 214.059 116.499 214.35C116.296 214.629 116.151 214.958 116.062 215.338C115.973 215.718 115.929 216.13 115.929 216.573V221H113.231V211.177ZM7.912 237.198C7.95 236.565 8.10833 236.039 8.387 235.621C8.66567 235.203 9.02033 234.867 9.451 234.614C9.88167 234.361 10.363 234.183 10.895 234.082C11.4397 233.968 11.9843 233.911 12.529 233.911C13.023 233.911 13.5233 233.949 14.03 234.025C14.5367 234.088 14.999 234.221 15.417 234.424C15.835 234.627 16.177 234.912 16.443 235.279C16.709 235.634 16.842 236.109 16.842 236.704V241.815C16.842 242.258 16.8673 242.683 16.918 243.088C16.9687 243.493 17.0573 243.797 17.184 244H14.448C14.3973 243.848 14.353 243.696 14.315 243.544C14.2897 243.379 14.2707 243.215 14.258 243.05C13.8273 243.493 13.3207 243.804 12.738 243.981C12.1553 244.158 11.56 244.247 10.952 244.247C10.4833 244.247 10.0463 244.19 9.641 244.076C9.23567 243.962 8.881 243.785 8.577 243.544C8.273 243.303 8.03233 242.999 7.855 242.632C7.69033 242.265 7.608 241.828 7.608 241.321C7.608 240.764 7.703 240.308 7.893 239.953C8.09567 239.586 8.349 239.294 8.653 239.079C8.96967 238.864 9.32433 238.705 9.717 238.604C10.1223 238.49 10.5277 238.401 10.933 238.338C11.3383 238.275 11.7373 238.224 12.13 238.186C12.5227 238.148 12.871 238.091 13.175 238.015C13.479 237.939 13.7197 237.831 13.897 237.692C14.0743 237.54 14.1567 237.325 14.144 237.046C14.144 236.755 14.0933 236.527 13.992 236.362C13.9033 236.185 13.7767 236.052 13.612 235.963C13.46 235.862 13.2763 235.798 13.061 235.773C12.8583 235.735 12.6367 235.716 12.396 235.716C11.864 235.716 11.446 235.83 11.142 236.058C10.838 236.286 10.6607 236.666 10.61 237.198H7.912ZM14.144 239.193C14.03 239.294 13.8843 239.377 13.707 239.44C13.5423 239.491 13.3587 239.535 13.156 239.573C12.966 239.611 12.7633 239.643 12.548 239.668C12.3327 239.693 12.1173 239.725 11.902 239.763C11.6993 239.801 11.4967 239.852 11.294 239.915C11.104 239.978 10.933 240.067 10.781 240.181C10.6417 240.282 10.5277 240.415 10.439 240.58C10.3503 240.745 10.306 240.954 10.306 241.207C10.306 241.448 10.3503 241.65 10.439 241.815C10.5277 241.98 10.648 242.113 10.8 242.214C10.952 242.303 11.1293 242.366 11.332 242.404C11.5347 242.442 11.7437 242.461 11.959 242.461C12.491 242.461 12.9027 242.372 13.194 242.195C13.4853 242.018 13.7007 241.809 13.84 241.568C13.9793 241.315 14.0617 241.061 14.087 240.808C14.125 240.555 14.144 240.352 14.144 240.2V239.193ZM25.9092 239.06C25.9092 238.655 25.8712 238.268 25.7952 237.901C25.7192 237.521 25.5862 237.192 25.3962 236.913C25.2188 236.622 24.9845 236.387 24.6932 236.21C24.4018 236.033 24.0345 235.944 23.5912 235.944C23.1478 235.944 22.7742 236.033 22.4702 236.21C22.1662 236.387 21.9192 236.622 21.7292 236.913C21.5518 237.204 21.4188 237.54 21.3302 237.92C21.2542 238.287 21.2162 238.674 21.2162 239.079C21.2162 239.459 21.2605 239.839 21.3492 240.219C21.4378 240.599 21.5772 240.941 21.7672 241.245C21.9698 241.536 22.2168 241.777 22.5082 241.967C22.8122 242.144 23.1732 242.233 23.5912 242.233C24.0345 242.233 24.4018 242.144 24.6932 241.967C24.9972 241.79 25.2378 241.555 25.4152 241.264C25.5925 240.96 25.7192 240.618 25.7952 240.238C25.8712 239.858 25.9092 239.465 25.9092 239.06ZM25.9472 242.746H25.9092C25.5925 243.278 25.1745 243.664 24.6552 243.905C24.1485 244.133 23.5722 244.247 22.9262 244.247C22.1915 244.247 21.5455 244.108 20.9882 243.829C20.4308 243.538 19.9685 243.151 19.6012 242.67C19.2465 242.176 18.9742 241.612 18.7842 240.979C18.6068 240.346 18.5182 239.687 18.5182 239.003C18.5182 238.344 18.6068 237.711 18.7842 237.103C18.9742 236.482 19.2465 235.938 19.6012 235.469C19.9685 235 20.4245 234.627 20.9692 234.348C21.5138 234.057 22.1472 233.911 22.8692 233.911C23.4518 233.911 24.0028 234.038 24.5222 234.291C25.0542 234.532 25.4722 234.893 25.7762 235.374H25.8142V230.434H28.5122V244H25.9472V242.746ZM37.5244 239.06C37.5244 238.655 37.4864 238.268 37.4104 237.901C37.3344 237.521 37.2014 237.192 37.0114 236.913C36.8341 236.622 36.5997 236.387 36.3084 236.21C36.0171 236.033 35.6497 235.944 35.2064 235.944C34.7631 235.944 34.3894 236.033 34.0854 236.21C33.7814 236.387 33.5344 236.622 33.3444 236.913C33.1671 237.204 33.0341 237.54 32.9454 237.92C32.8694 238.287 32.8314 238.674 32.8314 239.079C32.8314 239.459 32.8757 239.839 32.9644 240.219C33.0531 240.599 33.1924 240.941 33.3824 241.245C33.5851 241.536 33.8321 241.777 34.1234 241.967C34.4274 242.144 34.7884 242.233 35.2064 242.233C35.6497 242.233 36.0171 242.144 36.3084 241.967C36.6124 241.79 36.8531 241.555 37.0304 241.264C37.2077 240.96 37.3344 240.618 37.4104 240.238C37.4864 239.858 37.5244 239.465 37.5244 239.06ZM37.5624 242.746H37.5244C37.2077 243.278 36.7897 243.664 36.2704 243.905C35.7637 244.133 35.1874 244.247 34.5414 244.247C33.8067 244.247 33.1607 244.108 32.6034 243.829C32.0461 243.538 31.5837 243.151 31.2164 242.67C30.8617 242.176 30.5894 241.612 30.3994 240.979C30.2221 240.346 30.1334 239.687 30.1334 239.003C30.1334 238.344 30.2221 237.711 30.3994 237.103C30.5894 236.482 30.8617 235.938 31.2164 235.469C31.5837 235 32.0397 234.627 32.5844 234.348C33.1291 234.057 33.7624 233.911 34.4844 233.911C35.0671 233.911 35.6181 234.038 36.1374 234.291C36.6694 234.532 37.0874 234.893 37.3914 235.374H37.4294V230.434H40.1274V244H37.5624V242.746ZM42.1666 234.177H44.7316V236.001H44.7696C44.8963 235.697 45.0673 235.418 45.2826 235.165C45.498 234.899 45.745 234.677 46.0236 234.5C46.3023 234.31 46.6 234.164 46.9166 234.063C47.2333 233.962 47.5626 233.911 47.9046 233.911C48.082 233.911 48.2783 233.943 48.4936 234.006V236.514C48.367 236.489 48.215 236.47 48.0376 236.457C47.8603 236.432 47.6893 236.419 47.5246 236.419C47.0306 236.419 46.6126 236.501 46.2706 236.666C45.9286 236.831 45.65 237.059 45.4346 237.35C45.232 237.629 45.0863 237.958 44.9976 238.338C44.909 238.718 44.8646 239.13 44.8646 239.573V244H42.1666V234.177ZM55.8294 238.034C55.7027 237.35 55.4747 236.831 55.1454 236.476C54.8287 236.121 54.3411 235.944 53.6824 235.944C53.2517 235.944 52.8907 236.02 52.5994 236.172C52.3207 236.311 52.0927 236.489 51.9154 236.704C51.7507 236.919 51.6304 237.147 51.5544 237.388C51.4911 237.629 51.4531 237.844 51.4404 238.034H55.8294ZM51.4404 239.744C51.4784 240.618 51.7001 241.251 52.1054 241.644C52.5107 242.037 53.0934 242.233 53.8534 242.233C54.3981 242.233 54.8667 242.1 55.2594 241.834C55.6521 241.555 55.8927 241.264 55.9814 240.96H58.3564C57.9764 242.138 57.3937 242.98 56.6084 243.487C55.8231 243.994 54.8731 244.247 53.7584 244.247C52.9857 244.247 52.2891 244.127 51.6684 243.886C51.0477 243.633 50.5221 243.278 50.0914 242.822C49.6607 242.366 49.3251 241.821 49.0844 241.188C48.8564 240.555 48.7424 239.858 48.7424 239.098C48.7424 238.363 48.8627 237.679 49.1034 237.046C49.3441 236.413 49.6861 235.868 50.1294 235.412C50.5727 234.943 51.0984 234.576 51.7064 234.31C52.3271 234.044 53.0111 233.911 53.7584 233.911C54.5944 233.911 55.3227 234.076 55.9434 234.405C56.5641 234.722 57.0707 235.152 57.4634 235.697C57.8687 236.242 58.1601 236.862 58.3374 237.559C58.5147 238.256 58.5781 238.984 58.5274 239.744H51.4404ZM62.2176 240.808C62.2176 241.099 62.2746 241.353 62.3886 241.568C62.5152 241.771 62.6736 241.942 62.8636 242.081C63.0536 242.208 63.2689 242.303 63.5096 242.366C63.7629 242.429 64.0226 242.461 64.2886 242.461C64.4786 242.461 64.6749 242.442 64.8776 242.404C65.0929 242.353 65.2829 242.284 65.4476 242.195C65.6249 242.094 65.7706 241.967 65.8846 241.815C65.9986 241.65 66.0556 241.448 66.0556 241.207C66.0556 240.802 65.7832 240.498 65.2386 240.295C64.7066 240.092 63.9592 239.89 62.9966 239.687C62.6039 239.598 62.2176 239.497 61.8376 239.383C61.4702 239.256 61.1409 239.098 60.8496 238.908C60.5582 238.705 60.3239 238.458 60.1466 238.167C59.9692 237.863 59.8806 237.496 59.8806 237.065C59.8806 236.432 60.0009 235.912 60.2416 235.507C60.4949 235.102 60.8242 234.785 61.2296 234.557C61.6349 234.316 62.0909 234.152 62.5976 234.063C63.1042 233.962 63.6236 233.911 64.1556 233.911C64.6876 233.911 65.2006 233.962 65.6946 234.063C66.2012 234.164 66.6509 234.335 67.0436 234.576C67.4362 234.817 67.7592 235.14 68.0126 235.545C68.2786 235.938 68.4369 236.438 68.4876 237.046H65.9226C65.8846 236.527 65.6882 236.178 65.3336 236.001C64.9789 235.811 64.5609 235.716 64.0796 235.716C63.9276 235.716 63.7629 235.729 63.5856 235.754C63.4082 235.767 63.2436 235.805 63.0916 235.868C62.9522 235.931 62.8319 236.026 62.7306 236.153C62.6292 236.267 62.5786 236.425 62.5786 236.628C62.5786 236.869 62.6672 237.065 62.8446 237.217C63.0219 237.369 63.2499 237.496 63.5286 237.597C63.8199 237.686 64.1492 237.768 64.5166 237.844C64.8839 237.92 65.2576 238.002 65.6376 238.091C66.0302 238.18 66.4102 238.287 66.7776 238.414C67.1576 238.541 67.4932 238.712 67.7846 238.927C68.0759 239.13 68.3102 239.389 68.4876 239.706C68.6649 240.01 68.7536 240.39 68.7536 240.846C68.7536 241.492 68.6206 242.037 68.3546 242.48C68.1012 242.911 67.7656 243.259 67.3476 243.525C66.9296 243.791 66.4482 243.975 65.9036 244.076C65.3716 244.19 64.8269 244.247 64.2696 244.247C63.6996 244.247 63.1422 244.19 62.5976 244.076C62.0529 243.962 61.5652 243.772 61.1346 243.506C60.7166 243.24 60.3682 242.892 60.0896 242.461C59.8236 242.018 59.6779 241.467 59.6526 240.808H62.2176ZM72.4226 240.808C72.4226 241.099 72.4796 241.353 72.5936 241.568C72.7203 241.771 72.8786 241.942 73.0686 242.081C73.2586 242.208 73.474 242.303 73.7146 242.366C73.968 242.429 74.2276 242.461 74.4936 242.461C74.6836 242.461 74.88 242.442 75.0826 242.404C75.298 242.353 75.488 242.284 75.6526 242.195C75.83 242.094 75.9756 241.967 76.0896 241.815C76.2036 241.65 76.2606 241.448 76.2606 241.207C76.2606 240.802 75.9883 240.498 75.4436 240.295C74.9116 240.092 74.1643 239.89 73.2016 239.687C72.809 239.598 72.4226 239.497 72.0426 239.383C71.6753 239.256 71.346 239.098 71.0546 238.908C70.7633 238.705 70.529 238.458 70.3516 238.167C70.1743 237.863 70.0856 237.496 70.0856 237.065C70.0856 236.432 70.206 235.912 70.4466 235.507C70.7 235.102 71.0293 234.785 71.4346 234.557C71.84 234.316 72.296 234.152 72.8026 234.063C73.3093 233.962 73.8286 233.911 74.3606 233.911C74.8926 233.911 75.4056 233.962 75.8996 234.063C76.4063 234.164 76.856 234.335 77.2486 234.576C77.6413 234.817 77.9643 235.14 78.2176 235.545C78.4836 235.938 78.642 236.438 78.6926 237.046H76.1276C76.0896 236.527 75.8933 236.178 75.5386 236.001C75.184 235.811 74.766 235.716 74.2846 235.716C74.1326 235.716 73.968 235.729 73.7906 235.754C73.6133 235.767 73.4486 235.805 73.2966 235.868C73.1573 235.931 73.037 236.026 72.9356 236.153C72.8343 236.267 72.7836 236.425 72.7836 236.628C72.7836 236.869 72.8723 237.065 73.0496 237.217C73.227 237.369 73.455 237.496 73.7336 237.597C74.025 237.686 74.3543 237.768 74.7216 237.844C75.089 237.92 75.4626 238.002 75.8426 238.091C76.2353 238.18 76.6153 238.287 76.9826 238.414C77.3626 238.541 77.6983 238.712 77.9896 238.927C78.281 239.13 78.5153 239.389 78.6926 239.706C78.87 240.01 78.9586 240.39 78.9586 240.846C78.9586 241.492 78.8256 242.037 78.5596 242.48C78.3063 242.911 77.9706 243.259 77.5526 243.525C77.1346 243.791 76.6533 243.975 76.1086 244.076C75.5766 244.19 75.032 244.247 74.4746 244.247C73.9046 244.247 73.3473 244.19 72.8026 244.076C72.258 243.962 71.7703 243.772 71.3396 243.506C70.9216 243.24 70.5733 242.892 70.2946 242.461C70.0286 242.018 69.883 241.467 69.8576 240.808H72.4226ZM86.1617 241.074V244H83.1787V241.074H86.1617ZM80.1197 234.804C80.1324 234.12 80.2464 233.493 80.4617 232.923C80.6897 232.353 81.0001 231.859 81.3927 231.441C81.7981 231.023 82.2794 230.7 82.8367 230.472C83.4067 230.231 84.0401 230.111 84.7367 230.111C85.6361 230.111 86.3834 230.238 86.9787 230.491C87.5867 230.732 88.0744 231.036 88.4417 231.403C88.8091 231.77 89.0687 232.169 89.2207 232.6C89.3854 233.018 89.4677 233.411 89.4677 233.778C89.4677 234.386 89.3854 234.886 89.2207 235.279C89.0687 235.672 88.8724 236.007 88.6317 236.286C88.4037 236.565 88.1441 236.805 87.8527 237.008C87.5741 237.198 87.3081 237.394 87.0547 237.597C86.8014 237.787 86.5734 238.009 86.3707 238.262C86.1807 238.515 86.0604 238.832 86.0097 239.212V239.934H83.4447V239.079C83.4827 238.534 83.5841 238.078 83.7487 237.711C83.9261 237.344 84.1287 237.033 84.3567 236.78C84.5847 236.514 84.8254 236.286 85.0787 236.096C85.3321 235.906 85.5664 235.716 85.7817 235.526C85.9971 235.336 86.1681 235.127 86.2947 234.899C86.4341 234.671 86.4974 234.386 86.4847 234.044C86.4847 233.461 86.3391 233.031 86.0477 232.752C85.7691 232.473 85.3764 232.334 84.8697 232.334C84.5277 232.334 84.2301 232.404 83.9767 232.543C83.7361 232.67 83.5334 232.847 83.3687 233.075C83.2167 233.29 83.1027 233.55 83.0267 233.854C82.9507 234.145 82.9127 234.462 82.9127 234.804H80.1197Z" fill="#231F20"/>
</g>
<rect x="7.5" y="253.5" width="71" height="9" fill="white" stroke="#0B0C0C"/>
<g filter="url(#filter1_i_2403_845)">
<rect x="7" y="268" width="26" height="10" fill="#00823B"/>
</g>
<line x1="89.5" y1="105" x2="89.5" y2="185" stroke="black" stroke-width="3"/>
<defs>
<filter id="filter0_i_2403_845" x="7" y="85" width="26" height="10" filterUnits="userSpaceOnUse" color-interpolation-filters="sRGB">
<feFlood flood-opacity="0" result="BackgroundImageFix"/>
<feBlend mode="normal" in="SourceGraphic" in2="BackgroundImageFix" result="shape"/>
<feColorMatrix in="SourceAlpha" type="matrix" values="0 0 0 0 0 0 0 0 0 0 0 0 0 0 0 0 0 0 127 0" result="hardAlpha"/>
<feOffset dy="-1"/>
<feComposite in2="hardAlpha" operator="arithmetic" k2="-1" k3="1"/>
<feColorMatrix type="matrix" values="0 0 0 0 0 0 0 0 0 0.392157 0 0 0 0 0.207843 0 0 0 1 0"/>
<feBlend mode="normal" in2="shape" result="effect1_innerShadow_2403_845"/>
</filter>
<filter id="filter1_i_2403_845" x="7" y="268" width="26" height="10" filterUnits="userSpaceOnUse" color-interpolation-filters="sRGB">
<feFlood flood-opacity="0" result="BackgroundImageFix"/>
<feBlend mode="normal" in="SourceGraphic" in2="BackgroundImageFix" result="shape"/>
<feColorMatrix in="SourceAlpha" type="matrix" values="0 0 0 0 0 0 0 0 0 0 0 0 0 0 0 0 0 0 127 0" result="hardAlpha"/>
<feOffset dy="-1"/>
<feComposite in2="hardAlpha" operator="arithmetic" k2="-1" k3="1"/>
<feColorMatrix type="matrix" values="0 0 0 0 0 0 0 0 0 0.392157 0 0 0 0 0.207843 0 0 0 1 0"/>
<feBlend mode="normal" in2="shape" result="effect1_innerShadow_2403_845"/>
</filter>
<clipPath id="clip0_2403_845">
<rect width="158" height="46" fill="white" transform="translate(7 19)"/>
</clipPath>
<clipPath id="clip1_2403_845">
<rect width="158" height="46" fill="white" transform="translate(7 202)"/>
</clipPath>
</defs>
</svg>
