<svg width="22" height="25" viewBox="0 0 22 25" fill="none" xmlns="http://www.w3.org/2000/svg">
<path d="M16.7917 3.125H2.20833C1.05208 3.125 0.125 4.0625 0.125 5.20833V19.7917C0.125 20.9375 1.05208 21.875 2.20833 21.875H16.7917C17.9375 21.875 18.875 20.9375 18.875 19.7917V5.20833C18.875 4.0625 17.9479 3.125 16.7917 3.125ZM16.7917 19.7917H2.20833V7.29167H16.7917V19.7917ZM11.0625 13.5417C11.0625 14.4062 10.3646 15.1042 9.5 15.1042C8.63542 15.1042 7.9375 14.4062 7.9375 13.5417C7.9375 12.6771 8.63542 11.9792 9.5 11.9792C10.3646 11.9792 11.0625 12.6771 11.0625 13.5417ZM9.5 9.375C6.65625 9.375 4.22917 11.1042 3.25 13.5417C4.22917 15.9792 6.65625 17.7083 9.5 17.7083C12.3437 17.7083 14.7708 15.9792 15.75 13.5417C14.7708 11.1042 12.3437 9.375 9.5 9.375ZM9.5 16.1458C8.0625 16.1458 6.89583 14.9792 6.89583 13.5417C6.89583 12.1042 8.0625 10.9375 9.5 10.9375C10.9375 10.9375 12.1042 12.1042 12.1042 13.5417C12.1042 14.9792 10.9375 16.1458 9.5 16.1458Z" fill="#1D70B8"/>
</svg>
