<svg width="145" height="288" viewBox="0 0 145 288" fill="none" xmlns="http://www.w3.org/2000/svg">
<rect width="114" height="25" transform="translate(10 14)" fill="#CCE2D8"/>
<path d="M23.0859 21.5781C24.5599 21.5781 25.6354 21.8958 26.3125 22.5312C26.9896 23.1615 27.3281 24.0312 27.3281 25.1406C27.3281 25.6406 27.2526 26.1198 27.1016 26.5781C26.9505 27.0312 26.7031 27.4349 26.3594 27.7891C26.0208 28.1432 25.5677 28.4245 25 28.6328C24.4323 28.8359 23.7318 28.9375 22.8984 28.9375H21.8594V33H19.4375V21.5781H23.0859ZM22.9609 23.5625H21.8594V26.9531H22.6562C23.1094 26.9531 23.5026 26.8932 23.8359 26.7734C24.1693 26.6536 24.4271 26.4661 24.6094 26.2109C24.7917 25.9557 24.8828 25.6276 24.8828 25.2266C24.8828 24.6641 24.7266 24.2474 24.4141 23.9766C24.1016 23.7005 23.6172 23.5625 22.9609 23.5625ZM39.7812 21.5781V28.9688C39.7812 29.7552 39.6068 30.4661 39.2578 31.1016C38.9141 31.7318 38.3906 32.2318 37.6875 32.6016C36.9896 32.9714 36.1094 33.1562 35.0469 33.1562C33.5365 33.1562 32.3854 32.7708 31.5938 32C30.8021 31.2292 30.4062 30.2083 30.4062 28.9375V21.5781H32.8203V28.5703C32.8203 29.513 33.013 30.1745 33.3984 30.5547C33.7839 30.9349 34.3542 31.125 35.1094 31.125C35.6406 31.125 36.0703 31.0339 36.3984 30.8516C36.7318 30.6693 36.9766 30.388 37.1328 30.0078C37.2891 29.6276 37.3672 29.1432 37.3672 28.5547V21.5781H39.7812ZM43.5781 21.5781H47.1328C48.6536 21.5781 49.8047 21.7917 50.5859 22.2188C51.3672 22.6458 51.7578 23.3958 51.7578 24.4688C51.7578 24.901 51.6875 25.2917 51.5469 25.6406C51.4115 25.9896 51.2135 26.276 50.9531 26.5C50.6927 26.724 50.375 26.8698 50 26.9375V27.0156C50.3802 27.0938 50.724 27.2292 51.0312 27.4219C51.3385 27.6094 51.5833 27.8854 51.7656 28.25C51.9531 28.6094 52.0469 29.0885 52.0469 29.6875C52.0469 30.3802 51.8776 30.974 51.5391 31.4688C51.2005 31.9635 50.7161 32.3438 50.0859 32.6094C49.4609 32.8698 48.7161 33 47.8516 33H43.5781V21.5781ZM46 26.1016H47.4062C48.1094 26.1016 48.5964 25.9922 48.8672 25.7734C49.138 25.5495 49.2734 25.2214 49.2734 24.7891C49.2734 24.3516 49.112 24.0391 48.7891 23.8516C48.4714 23.6589 47.9661 23.5625 47.2734 23.5625H46V26.1016ZM46 28.0234V31H47.5781C48.3073 31 48.8151 30.8594 49.1016 30.5781C49.388 30.2969 49.5312 29.9193 49.5312 29.4453C49.5312 29.1641 49.4688 28.9167 49.3438 28.7031C49.2188 28.4896 49.0078 28.3229 48.7109 28.2031C48.4193 28.0833 48.0156 28.0234 47.5 28.0234H46ZM55.3281 33V21.5781H57.75V31H62.3828V33H55.3281ZM65.375 33V21.5781H67.7969V33H65.375ZM78.4141 29.8281C78.4141 30.5052 78.25 31.0938 77.9219 31.5938C77.5938 32.0938 77.1146 32.4792 76.4844 32.75C75.8594 33.0208 75.099 33.1562 74.2031 33.1562C73.8073 33.1562 73.4193 33.1302 73.0391 33.0781C72.6641 33.026 72.3021 32.9505 71.9531 32.8516C71.6094 32.7474 71.2812 32.6198 70.9688 32.4688V30.2188C71.5104 30.4583 72.0729 30.6745 72.6562 30.8672C73.2396 31.0599 73.8177 31.1562 74.3906 31.1562C74.7865 31.1562 75.1042 31.1042 75.3438 31C75.5885 30.8958 75.7656 30.7526 75.875 30.5703C75.9844 30.388 76.0391 30.1797 76.0391 29.9453C76.0391 29.6589 75.9427 29.4141 75.75 29.2109C75.5573 29.0078 75.2917 28.8177 74.9531 28.6406C74.6198 28.4635 74.2422 28.2734 73.8203 28.0703C73.5547 27.9453 73.2656 27.7943 72.9531 27.6172C72.6406 27.4349 72.3438 27.2135 72.0625 26.9531C71.7812 26.6927 71.5495 26.3776 71.3672 26.0078C71.1901 25.6328 71.1016 25.1849 71.1016 24.6641C71.1016 23.9818 71.2578 23.3984 71.5703 22.9141C71.8828 22.4297 72.3281 22.0599 72.9062 21.8047C73.4896 21.5443 74.1771 21.4141 74.9688 21.4141C75.5625 21.4141 76.1276 21.4844 76.6641 21.625C77.2057 21.7604 77.7708 21.9583 78.3594 22.2188L77.5781 24.1016C77.0521 23.888 76.5807 23.724 76.1641 23.6094C75.7474 23.4896 75.3229 23.4297 74.8906 23.4297C74.5885 23.4297 74.3307 23.4792 74.1172 23.5781C73.9036 23.6719 73.7422 23.8073 73.6328 23.9844C73.5234 24.1562 73.4688 24.3568 73.4688 24.5859C73.4688 24.8568 73.5469 25.0859 73.7031 25.2734C73.8646 25.4557 74.1042 25.6328 74.4219 25.8047C74.7448 25.9766 75.1458 26.1771 75.625 26.4062C76.2083 26.6823 76.7057 26.9714 77.1172 27.2734C77.5339 27.5703 77.8542 27.9219 78.0781 28.3281C78.3021 28.7292 78.4141 29.2292 78.4141 29.8281ZM90.8438 33H88.4297V28.0703H83.9062V33H81.4844V21.5781H83.9062V26.0547H88.4297V21.5781H90.8438V33ZM101.312 33H94.7344V21.5781H101.312V23.5625H97.1562V26.0703H101.023V28.0547H97.1562V31H101.312V33ZM114.18 27.1797C114.18 28.4661 113.932 29.5417 113.438 30.4062C112.948 31.2656 112.237 31.9141 111.305 32.3516C110.372 32.7839 109.25 33 107.938 33H104.703V21.5781H108.289C109.487 21.5781 110.526 21.7917 111.406 22.2188C112.286 22.6406 112.969 23.2682 113.453 24.1016C113.938 24.9297 114.18 25.9557 114.18 27.1797ZM111.664 27.2422C111.664 26.3984 111.539 25.7057 111.289 25.1641C111.044 24.6172 110.68 24.2135 110.195 23.9531C109.716 23.6927 109.122 23.5625 108.414 23.5625H107.125V31H108.164C109.346 31 110.224 30.6849 110.797 30.0547C111.375 29.4245 111.664 28.487 111.664 27.2422Z" fill="#005A30"/>
<rect width="104" height="25" transform="translate(10 202)" fill="#EEEFEF"/>
<path d="M26.4297 221L25.6016 218.281H21.4375L20.6094 221H18L22.0312 209.531H24.9922L29.0391 221H26.4297ZM25.0234 216.25L24.1953 213.594C24.1432 213.417 24.0729 213.19 23.9844 212.914C23.901 212.633 23.8151 212.349 23.7266 212.062C23.6432 211.771 23.5755 211.518 23.5234 211.305C23.4714 211.518 23.3984 211.784 23.3047 212.102C23.2161 212.414 23.1302 212.711 23.0469 212.992C22.9635 213.273 22.9036 213.474 22.8672 213.594L22.0469 216.25H25.0234ZM34.8125 209.578C35.849 209.578 36.7031 209.703 37.375 209.953C38.0521 210.203 38.5547 210.581 38.8828 211.086C39.2109 211.591 39.375 212.229 39.375 213C39.375 213.521 39.276 213.977 39.0781 214.367C38.8802 214.758 38.6198 215.089 38.2969 215.359C37.974 215.63 37.625 215.852 37.25 216.023L40.6094 221H37.9219L35.1953 216.617H33.9062V221H31.4844V209.578H34.8125ZM34.6406 211.562H33.9062V214.648H34.6875C35.4896 214.648 36.0625 214.516 36.4062 214.25C36.7552 213.979 36.9297 213.583 36.9297 213.062C36.9297 212.521 36.7422 212.135 36.3672 211.906C35.9974 211.677 35.4219 211.562 34.6406 211.562ZM47.8984 211.43C47.4349 211.43 47.0234 211.521 46.6641 211.703C46.3099 211.88 46.0104 212.138 45.7656 212.477C45.526 212.815 45.3438 213.224 45.2188 213.703C45.0938 214.182 45.0312 214.721 45.0312 215.32C45.0312 216.128 45.1302 216.818 45.3281 217.391C45.5312 217.958 45.8438 218.393 46.2656 218.695C46.6875 218.992 47.2318 219.141 47.8984 219.141C48.362 219.141 48.8255 219.089 49.2891 218.984C49.7578 218.88 50.2656 218.732 50.8125 218.539V220.57C50.3073 220.779 49.8099 220.927 49.3203 221.016C48.8307 221.109 48.2812 221.156 47.6719 221.156C46.4948 221.156 45.526 220.914 44.7656 220.43C44.0104 219.94 43.4505 219.258 43.0859 218.383C42.7214 217.503 42.5391 216.477 42.5391 215.305C42.5391 214.44 42.6562 213.648 42.8906 212.93C43.125 212.211 43.4688 211.589 43.9219 211.062C44.375 210.536 44.9349 210.13 45.6016 209.844C46.2682 209.557 47.0339 209.414 47.8984 209.414C48.4661 209.414 49.0339 209.487 49.6016 209.633C50.1745 209.773 50.7214 209.969 51.2422 210.219L50.4609 212.188C50.0339 211.984 49.6042 211.807 49.1719 211.656C48.7396 211.505 48.3151 211.43 47.8984 211.43ZM63.6094 221H61.1953V216.07H56.6719V221H54.25V209.578H56.6719V214.055H61.1953V209.578H63.6094V221ZM67.5 221V209.578H69.9219V221H67.5ZM82.7578 209.578L78.875 221H76.2344L72.3594 209.578H74.8047L76.9531 216.375C76.9896 216.49 77.0495 216.706 77.1328 217.023C77.2161 217.336 77.2995 217.669 77.3828 218.023C77.4714 218.372 77.5312 218.661 77.5625 218.891C77.5938 218.661 77.6484 218.372 77.7266 218.023C77.8099 217.674 77.8906 217.344 77.9688 217.031C78.0521 216.714 78.112 216.495 78.1484 216.375L80.3125 209.578H82.7578ZM91.7812 221H85.2031V209.578H91.7812V211.562H87.625V214.07H91.4922V216.055H87.625V219H91.7812V221ZM104.648 215.18C104.648 216.466 104.401 217.542 103.906 218.406C103.417 219.266 102.706 219.914 101.773 220.352C100.841 220.784 99.7188 221 98.4062 221H95.1719V209.578H98.7578C99.9557 209.578 100.995 209.792 101.875 210.219C102.755 210.641 103.438 211.268 103.922 212.102C104.406 212.93 104.648 213.956 104.648 215.18ZM102.133 215.242C102.133 214.398 102.008 213.706 101.758 213.164C101.513 212.617 101.148 212.214 100.664 211.953C100.185 211.693 99.5911 211.562 98.8828 211.562H97.5938V219H98.6328C99.8151 219 100.693 218.685 101.266 218.055C101.844 217.424 102.133 216.487 102.133 215.242Z" fill="#383F43"/>
<rect width="89" height="25" transform="translate(10 155)" fill="#DBD5E9"/>
<path d="M23.8438 174H21.4219V164.594H18.3203V162.578H26.9453V164.594H23.8438V174ZM36.2812 174H29.7031V162.578H36.2812V164.562H32.125V167.07H35.9922V169.055H32.125V172H36.2812V174ZM46.4141 170.828C46.4141 171.505 46.25 172.094 45.9219 172.594C45.5938 173.094 45.1146 173.479 44.4844 173.75C43.8594 174.021 43.099 174.156 42.2031 174.156C41.8073 174.156 41.4193 174.13 41.0391 174.078C40.6641 174.026 40.3021 173.951 39.9531 173.852C39.6094 173.747 39.2812 173.62 38.9688 173.469V171.219C39.5104 171.458 40.0729 171.674 40.6562 171.867C41.2396 172.06 41.8177 172.156 42.3906 172.156C42.7865 172.156 43.1042 172.104 43.3438 172C43.5885 171.896 43.7656 171.753 43.875 171.57C43.9844 171.388 44.0391 171.18 44.0391 170.945C44.0391 170.659 43.9427 170.414 43.75 170.211C43.5573 170.008 43.2917 169.818 42.9531 169.641C42.6198 169.464 42.2422 169.273 41.8203 169.07C41.5547 168.945 41.2656 168.794 40.9531 168.617C40.6406 168.435 40.3438 168.214 40.0625 167.953C39.7812 167.693 39.5495 167.378 39.3672 167.008C39.1901 166.633 39.1016 166.185 39.1016 165.664C39.1016 164.982 39.2578 164.398 39.5703 163.914C39.8828 163.43 40.3281 163.06 40.9062 162.805C41.4896 162.544 42.1771 162.414 42.9688 162.414C43.5625 162.414 44.1276 162.484 44.6641 162.625C45.2057 162.76 45.7708 162.958 46.3594 163.219L45.5781 165.102C45.0521 164.888 44.5807 164.724 44.1641 164.609C43.7474 164.49 43.3229 164.43 42.8906 164.43C42.5885 164.43 42.3307 164.479 42.1172 164.578C41.9036 164.672 41.7422 164.807 41.6328 164.984C41.5234 165.156 41.4688 165.357 41.4688 165.586C41.4688 165.857 41.5469 166.086 41.7031 166.273C41.8646 166.456 42.1042 166.633 42.4219 166.805C42.7448 166.977 43.1458 167.177 43.625 167.406C44.2083 167.682 44.7057 167.971 45.1172 168.273C45.5339 168.57 45.8542 168.922 46.0781 169.328C46.3021 169.729 46.4141 170.229 46.4141 170.828ZM53.8906 174H51.4688V164.594H48.3672V162.578H56.9922V164.594H53.8906V174ZM59.75 174V162.578H62.1719V174H59.75ZM76.1797 174H73.1016L68.1328 165.359H68.0625C68.0833 165.719 68.1016 166.081 68.1172 166.445C68.1328 166.81 68.1484 167.174 68.1641 167.539C68.1797 167.898 68.1953 168.26 68.2109 168.625V174H66.0469V162.578H69.1016L74.0625 171.133H74.1172C74.1068 170.779 74.0938 170.427 74.0781 170.078C74.0625 169.729 74.0469 169.38 74.0312 169.031C74.0208 168.682 74.0104 168.333 74 167.984V162.578H76.1797V174ZM84.3984 167.586H88.9297V173.508C88.3307 173.706 87.7083 173.865 87.0625 173.984C86.4167 174.099 85.6849 174.156 84.8672 174.156C83.7318 174.156 82.7682 173.932 81.9766 173.484C81.1849 173.036 80.5833 172.375 80.1719 171.5C79.7604 170.625 79.5547 169.549 79.5547 168.273C79.5547 167.076 79.7839 166.039 80.2422 165.164C80.7057 164.289 81.3802 163.612 82.2656 163.133C83.1562 162.654 84.2422 162.414 85.5234 162.414C86.1276 162.414 86.724 162.479 87.3125 162.609C87.901 162.74 88.4349 162.909 88.9141 163.117L88.1094 165.055C87.7604 164.878 87.362 164.729 86.9141 164.609C86.4661 164.49 85.9974 164.43 85.5078 164.43C84.8047 164.43 84.1927 164.591 83.6719 164.914C83.1562 165.237 82.7552 165.69 82.4688 166.273C82.1875 166.852 82.0469 167.534 82.0469 168.32C82.0469 169.065 82.1484 169.727 82.3516 170.305C82.5547 170.878 82.875 171.328 83.3125 171.656C83.75 171.979 84.3203 172.141 85.0234 172.141C85.3672 172.141 85.6562 172.125 85.8906 172.094C86.1302 172.057 86.3542 172.021 86.5625 171.984V169.602H84.3984V167.586Z" fill="#3D2375"/>
<rect width="72" height="25" transform="translate(10 108)" fill="#FCD6C3"/>
<path d="M28.9141 121.18C28.9141 122.466 28.6667 123.542 28.1719 124.406C27.6823 125.266 26.9714 125.914 26.0391 126.352C25.1068 126.784 23.9844 127 22.6719 127H19.4375V115.578H23.0234C24.2214 115.578 25.2604 115.792 26.1406 116.219C27.0208 116.641 27.7031 117.268 28.1875 118.102C28.6719 118.93 28.9141 119.956 28.9141 121.18ZM26.3984 121.242C26.3984 120.398 26.2734 119.706 26.0234 119.164C25.7786 118.617 25.4141 118.214 24.9297 117.953C24.4505 117.693 23.8568 117.562 23.1484 117.562H21.8594V125H22.8984C24.0807 125 24.9583 124.685 25.5312 124.055C26.1094 123.424 26.3984 122.487 26.3984 121.242ZM35.6094 115.578C36.6458 115.578 37.5 115.703 38.1719 115.953C38.849 116.203 39.3516 116.581 39.6797 117.086C40.0078 117.591 40.1719 118.229 40.1719 119C40.1719 119.521 40.0729 119.977 39.875 120.367C39.6771 120.758 39.4167 121.089 39.0938 121.359C38.7708 121.63 38.4219 121.852 38.0469 122.023L41.4062 127H38.7188L35.9922 122.617H34.7031V127H32.2812V115.578H35.6094ZM35.4375 117.562H34.7031V120.648H35.4844C36.2865 120.648 36.8594 120.516 37.2031 120.25C37.5521 119.979 37.7266 119.583 37.7266 119.062C37.7266 118.521 37.5391 118.135 37.1641 117.906C36.7943 117.677 36.2188 117.562 35.4375 117.562ZM50.8359 127L50.0078 124.281H45.8438L45.0156 127H42.4062L46.4375 115.531H49.3984L53.4453 127H50.8359ZM49.4297 122.25L48.6016 119.594C48.5495 119.417 48.4792 119.19 48.3906 118.914C48.3073 118.633 48.2214 118.349 48.1328 118.062C48.0495 117.771 47.9818 117.518 47.9297 117.305C47.8776 117.518 47.8047 117.784 47.7109 118.102C47.6224 118.414 47.5365 118.711 47.4531 118.992C47.3698 119.273 47.3099 119.474 47.2734 119.594L46.4531 122.25H49.4297ZM58.2734 127H55.8906V115.578H62.4375V117.562H58.2734V120.508H62.1484V122.484H58.2734V127ZM70.0781 127H67.6562V117.594H64.5547V115.578H73.1797V117.594H70.0781V127Z" fill="#6E3619"/>
<rect width="129" height="25" transform="translate(10 249)" fill="#F7D7E6"/>
<path d="M33.4688 256.578L30.5625 268H27.8047L26.2578 262C26.2266 261.885 26.1849 261.711 26.1328 261.477C26.0807 261.242 26.026 260.987 25.9688 260.711C25.9115 260.43 25.8594 260.167 25.8125 259.922C25.7708 259.672 25.7422 259.474 25.7266 259.328C25.7109 259.474 25.6797 259.669 25.6328 259.914C25.5911 260.159 25.5417 260.419 25.4844 260.695C25.4323 260.971 25.3802 261.229 25.3281 261.469C25.276 261.708 25.2344 261.891 25.2031 262.016L23.6641 268H20.9141L18 256.578H20.3828L21.8438 262.812C21.8854 263 21.9323 263.224 21.9844 263.484C22.0417 263.745 22.0964 264.018 22.1484 264.305C22.2057 264.586 22.2552 264.859 22.2969 265.125C22.3438 265.385 22.3776 265.612 22.3984 265.805C22.4245 265.607 22.4583 265.378 22.5 265.117C22.5417 264.852 22.5859 264.583 22.6328 264.312C22.6849 264.036 22.737 263.781 22.7891 263.547C22.8411 263.312 22.888 263.122 22.9297 262.977L24.5938 256.578H26.8828L28.5469 262.977C28.5833 263.117 28.625 263.307 28.6719 263.547C28.724 263.781 28.776 264.036 28.8281 264.312C28.8802 264.589 28.9271 264.859 28.9688 265.125C29.0156 265.385 29.0495 265.612 29.0703 265.805C29.1068 265.544 29.1562 265.229 29.2188 264.859C29.2865 264.484 29.3568 264.112 29.4297 263.742C29.5078 263.372 29.5755 263.062 29.6328 262.812L31.0859 256.578H33.4688ZM35.9062 268V256.578H38.3281V268H35.9062ZM46.6094 268H44.1875V258.594H41.0859V256.578H49.7109V258.594H46.6094V268ZM61.8281 268H59.4141V263.07H54.8906V268H52.4688V256.578H54.8906V261.055H59.4141V256.578H61.8281V268ZM75.1953 262.18C75.1953 263.466 74.9479 264.542 74.4531 265.406C73.9635 266.266 73.2526 266.914 72.3203 267.352C71.388 267.784 70.2656 268 68.9531 268H65.7188V256.578H69.3047C70.5026 256.578 71.5417 256.792 72.4219 257.219C73.3021 257.641 73.9844 258.268 74.4688 259.102C74.9531 259.93 75.1953 260.956 75.1953 262.18ZM72.6797 262.242C72.6797 261.398 72.5547 260.706 72.3047 260.164C72.0599 259.617 71.6953 259.214 71.2109 258.953C70.7318 258.693 70.138 258.562 69.4297 258.562H68.1406V266H69.1797C70.362 266 71.2396 265.685 71.8125 265.055C72.3906 264.424 72.6797 263.487 72.6797 262.242ZM81.8906 256.578C82.9271 256.578 83.7812 256.703 84.4531 256.953C85.1302 257.203 85.6328 257.581 85.9609 258.086C86.2891 258.591 86.4531 259.229 86.4531 260C86.4531 260.521 86.3542 260.977 86.1562 261.367C85.9583 261.758 85.6979 262.089 85.375 262.359C85.0521 262.63 84.7031 262.852 84.3281 263.023L87.6875 268H85L82.2734 263.617H80.9844V268H78.5625V256.578H81.8906ZM81.7188 258.562H80.9844V261.648H81.7656C82.5677 261.648 83.1406 261.516 83.4844 261.25C83.8333 260.979 84.0078 260.583 84.0078 260.062C84.0078 259.521 83.8203 259.135 83.4453 258.906C83.0755 258.677 82.5 258.562 81.7188 258.562ZM97.1172 268L96.2891 265.281H92.125L91.2969 268H88.6875L92.7188 256.531H95.6797L99.7266 268H97.1172ZM95.7109 263.25L94.8828 260.594C94.8307 260.417 94.7604 260.19 94.6719 259.914C94.5885 259.633 94.5026 259.349 94.4141 259.062C94.3307 258.771 94.263 258.518 94.2109 258.305C94.1589 258.518 94.0859 258.784 93.9922 259.102C93.9036 259.414 93.8177 259.711 93.7344 259.992C93.651 260.273 93.5911 260.474 93.5547 260.594L92.7344 263.25H95.7109ZM116.203 256.578L113.297 268H110.539L108.992 262C108.961 261.885 108.919 261.711 108.867 261.477C108.815 261.242 108.76 260.987 108.703 260.711C108.646 260.43 108.594 260.167 108.547 259.922C108.505 259.672 108.477 259.474 108.461 259.328C108.445 259.474 108.414 259.669 108.367 259.914C108.326 260.159 108.276 260.419 108.219 260.695C108.167 260.971 108.115 261.229 108.062 261.469C108.01 261.708 107.969 261.891 107.938 262.016L106.398 268H103.648L100.734 256.578H103.117L104.578 262.812C104.62 263 104.667 263.224 104.719 263.484C104.776 263.745 104.831 264.018 104.883 264.305C104.94 264.586 104.99 264.859 105.031 265.125C105.078 265.385 105.112 265.612 105.133 265.805C105.159 265.607 105.193 265.378 105.234 265.117C105.276 264.852 105.32 264.583 105.367 264.312C105.419 264.036 105.471 263.781 105.523 263.547C105.576 263.312 105.622 263.122 105.664 262.977L107.328 256.578H109.617L111.281 262.977C111.318 263.117 111.359 263.307 111.406 263.547C111.458 263.781 111.51 264.036 111.562 264.312C111.615 264.589 111.661 264.859 111.703 265.125C111.75 265.385 111.784 265.612 111.805 265.805C111.841 265.544 111.891 265.229 111.953 264.859C112.021 264.484 112.091 264.112 112.164 263.742C112.242 263.372 112.31 263.062 112.367 262.812L113.82 256.578H116.203ZM128.773 268H125.695L120.727 259.359H120.656C120.677 259.719 120.695 260.081 120.711 260.445C120.727 260.81 120.742 261.174 120.758 261.539C120.773 261.898 120.789 262.26 120.805 262.625V268H118.641V256.578H121.695L126.656 265.133H126.711C126.701 264.779 126.688 264.427 126.672 264.078C126.656 263.729 126.641 263.38 126.625 263.031C126.615 262.682 126.604 262.333 126.594 261.984V256.578H128.773V268Z" fill="#80224D"/>
<rect width="81" height="25" transform="translate(10 61)" fill="#D2E2F1"/>
<path d="M22.7656 68.5781C23.8021 68.5781 24.6562 68.7031 25.3281 68.9531C26.0052 69.2031 26.5078 69.5807 26.8359 70.0859C27.1641 70.5911 27.3281 71.2292 27.3281 72C27.3281 72.5208 27.2292 72.9766 27.0312 73.3672C26.8333 73.7578 26.5729 74.0885 26.25 74.3594C25.9271 74.6302 25.5781 74.8516 25.2031 75.0234L28.5625 80H25.875L23.1484 75.6172H21.8594V80H19.4375V68.5781H22.7656ZM22.5938 70.5625H21.8594V73.6484H22.6406C23.4427 73.6484 24.0156 73.5156 24.3594 73.25C24.7083 72.9792 24.8828 72.5833 24.8828 72.0625C24.8828 71.5208 24.6953 71.1354 24.3203 70.9062C23.9505 70.6771 23.375 70.5625 22.5938 70.5625ZM37.5781 80H31V68.5781H37.5781V70.5625H33.4219V73.0703H37.2891V75.0547H33.4219V78H37.5781V80ZM49.9297 68.5781L46.0469 80H43.4062L39.5312 68.5781H41.9766L44.125 75.375C44.1615 75.4896 44.2214 75.7057 44.3047 76.0234C44.388 76.3359 44.4714 76.6693 44.5547 77.0234C44.6432 77.3724 44.7031 77.6615 44.7344 77.8906C44.7656 77.6615 44.8203 77.3724 44.8984 77.0234C44.9818 76.6745 45.0625 76.3438 45.1406 76.0312C45.224 75.7135 45.2839 75.4948 45.3203 75.375L47.4844 68.5781H49.9297ZM52.375 80V68.5781H54.7969V80H52.375ZM65.25 80H58.6719V68.5781H65.25V70.5625H61.0938V73.0703H64.9609V75.0547H61.0938V78H65.25V80ZM82.6719 68.5781L79.7656 80H77.0078L75.4609 74C75.4297 73.8854 75.388 73.7109 75.3359 73.4766C75.2839 73.2422 75.2292 72.987 75.1719 72.7109C75.1146 72.4297 75.0625 72.1667 75.0156 71.9219C74.974 71.6719 74.9453 71.474 74.9297 71.3281C74.9141 71.474 74.8828 71.6693 74.8359 71.9141C74.7943 72.1589 74.7448 72.4193 74.6875 72.6953C74.6354 72.9714 74.5833 73.2292 74.5312 73.4688C74.4792 73.7083 74.4375 73.8906 74.4062 74.0156L72.8672 80H70.1172L67.2031 68.5781H69.5859L71.0469 74.8125C71.0885 75 71.1354 75.224 71.1875 75.4844C71.2448 75.7448 71.2995 76.0182 71.3516 76.3047C71.4089 76.5859 71.4583 76.8594 71.5 77.125C71.5469 77.3854 71.5807 77.612 71.6016 77.8047C71.6276 77.6068 71.6615 77.3776 71.7031 77.1172C71.7448 76.8516 71.7891 76.5833 71.8359 76.3125C71.888 76.0365 71.9401 75.7812 71.9922 75.5469C72.0443 75.3125 72.0911 75.1224 72.1328 74.9766L73.7969 68.5781H76.0859L77.75 74.9766C77.7865 75.1172 77.8281 75.3073 77.875 75.5469C77.9271 75.7812 77.9792 76.0365 78.0312 76.3125C78.0833 76.5885 78.1302 76.8594 78.1719 77.125C78.2188 77.3854 78.2526 77.612 78.2734 77.8047C78.3099 77.5443 78.3594 77.2292 78.4219 76.8594C78.4896 76.4844 78.5599 76.112 78.6328 75.7422C78.7109 75.3724 78.7786 75.0625 78.8359 74.8125L80.2891 68.5781H82.6719Z" fill="#144E81"/>
</svg>
