<svg width="252" height="240" viewBox="0 0 252 240" fill="none" xmlns="http://www.w3.org/2000/svg">
<rect width="240" height="141" transform="translate(12 24)" fill="white"/>
<path d="M13 25H251V164H13V25Z" stroke="black" stroke-width="2"/>
<rect x="14" y="102" width="236" height="1" fill="white"/>
<rect x="14" y="133" width="236" height="1" fill="white"/>
<path d="M12 148H252V179H12V148Z" fill="#0B0C0C"/>
<path d="M12 179H252V210H12V179Z" fill="#0B0C0C"/>
<path d="M12 210H252V240H12V210Z" fill="#0B0C0C"/>
<rect width="240" height="141" transform="translate(8 16)" fill="white"/>
<path d="M9 17H247V156H9V17Z" stroke="black" stroke-width="2"/>
<rect x="10" y="94" width="236" height="1" fill="white"/>
<rect x="10" y="125" width="236" height="1" fill="white"/>
<path d="M8 140H248V171H8V140Z" fill="#0B0C0C"/>
<path d="M8 171H248V202H8V171Z" fill="#0B0C0C"/>
<path d="M8 202H248V232H8V202Z" fill="#0B0C0C"/>
<rect width="240" height="141" transform="translate(4 8)" fill="white"/>
<path d="M5 9H243V148H5V9Z" stroke="black" stroke-width="2"/>
<rect x="6" y="86" width="236" height="1" fill="white"/>
<rect x="6" y="117" width="236" height="1" fill="white"/>
<path d="M4 132H244V163H4V132Z" fill="#0B0C0C"/>
<path d="M4 163H244V194H4V163Z" fill="#0B0C0C"/>
<path d="M4 194H244V224H4V194Z" fill="#0B0C0C"/>
<rect width="240" height="141" fill="white"/>
<path d="M1 1H239V140H1V1Z" stroke="black" stroke-width="2"/>
<rect x="2" y="78" width="236" height="1" fill="white"/>
<rect x="2" y="109" width="236" height="1" fill="white"/>
<path d="M20.4297 31L19.6016 28.2812H15.4375L14.6094 31H12L16.0312 19.5312H18.9922L23.0391 31H20.4297ZM19.0234 26.25L18.1953 23.5938C18.1432 23.4167 18.0729 23.1901 17.9844 22.9141C17.901 22.6328 17.8151 22.349 17.7266 22.0625C17.6432 21.7708 17.5755 21.5182 17.5234 21.3047C17.4714 21.5182 17.3984 21.7839 17.3047 22.1016C17.2161 22.4141 17.1302 22.7109 17.0469 22.9922C16.9635 23.2734 16.9036 23.474 16.8672 23.5938L16.0469 26.25H19.0234ZM27.0625 31.1562C26.0885 31.1562 25.2943 30.776 24.6797 30.0156C24.0703 29.25 23.7656 28.1276 23.7656 26.6484C23.7656 25.1536 24.0755 24.0234 24.6953 23.2578C25.3151 22.487 26.125 22.1016 27.125 22.1016C27.5417 22.1016 27.9089 22.1589 28.2266 22.2734C28.5443 22.388 28.8177 22.5417 29.0469 22.7344C29.2812 22.9271 29.4792 23.1432 29.6406 23.3828H29.7188C29.6875 23.2161 29.6484 22.9714 29.6016 22.6484C29.5599 22.3203 29.5391 21.9844 29.5391 21.6406V18.8438H31.9297V31H30.1016L29.6406 29.8672H29.5391C29.388 30.1068 29.1979 30.3255 28.9688 30.5234C28.7448 30.7161 28.4766 30.8698 28.1641 30.9844C27.8516 31.099 27.4844 31.1562 27.0625 31.1562ZM27.8984 29.2578C28.5495 29.2578 29.0078 29.0651 29.2734 28.6797C29.5443 28.2891 29.6875 27.7031 29.7031 26.9219V26.6641C29.7031 25.8151 29.5729 25.1667 29.3125 24.7188C29.0521 24.2656 28.5677 24.0391 27.8594 24.0391C27.3333 24.0391 26.9219 24.2656 26.625 24.7188C26.3281 25.1719 26.1797 25.8255 26.1797 26.6797C26.1797 27.5339 26.3281 28.1771 26.625 28.6094C26.9271 29.0417 27.3516 29.2578 27.8984 29.2578ZM37.1875 31.1562C36.2135 31.1562 35.4193 30.776 34.8047 30.0156C34.1953 29.25 33.8906 28.1276 33.8906 26.6484C33.8906 25.1536 34.2005 24.0234 34.8203 23.2578C35.4401 22.487 36.25 22.1016 37.25 22.1016C37.6667 22.1016 38.0339 22.1589 38.3516 22.2734C38.6693 22.388 38.9427 22.5417 39.1719 22.7344C39.4062 22.9271 39.6042 23.1432 39.7656 23.3828H39.8438C39.8125 23.2161 39.7734 22.9714 39.7266 22.6484C39.6849 22.3203 39.6641 21.9844 39.6641 21.6406V18.8438H42.0547V31H40.2266L39.7656 29.8672H39.6641C39.513 30.1068 39.3229 30.3255 39.0938 30.5234C38.8698 30.7161 38.6016 30.8698 38.2891 30.9844C37.9766 31.099 37.6094 31.1562 37.1875 31.1562ZM38.0234 29.2578C38.6745 29.2578 39.1328 29.0651 39.3984 28.6797C39.6693 28.2891 39.8125 27.7031 39.8281 26.9219V26.6641C39.8281 25.8151 39.6979 25.1667 39.4375 24.7188C39.1771 24.2656 38.6927 24.0391 37.9844 24.0391C37.4583 24.0391 37.0469 24.2656 36.75 24.7188C36.4531 25.1719 36.3047 25.8255 36.3047 26.6797C36.3047 27.5339 36.4531 28.1771 36.75 28.6094C37.0521 29.0417 37.4766 29.2578 38.0234 29.2578ZM52.2812 22.0859C53.4531 22.0859 54.3516 22.3411 54.9766 22.8516C55.6016 23.362 55.9141 24.138 55.9141 25.1797V31H54.25L53.7891 29.8125H53.7266C53.4766 30.125 53.2214 30.3802 52.9609 30.5781C52.7005 30.776 52.401 30.9219 52.0625 31.0156C51.724 31.1094 51.3125 31.1562 50.8281 31.1562C50.3125 31.1562 49.849 31.0573 49.4375 30.8594C49.0312 30.6615 48.7109 30.3594 48.4766 29.9531C48.2422 29.5417 48.125 29.0208 48.125 28.3906C48.125 27.4635 48.4505 26.7812 49.1016 26.3438C49.7526 25.901 50.7292 25.6562 52.0312 25.6094L53.5469 25.5625V25.1797C53.5469 24.7214 53.4271 24.3854 53.1875 24.1719C52.9479 23.9583 52.6146 23.8516 52.1875 23.8516C51.7656 23.8516 51.3516 23.9115 50.9453 24.0312C50.5391 24.151 50.1328 24.3021 49.7266 24.4844L48.9375 22.875C49.401 22.6302 49.9193 22.4375 50.4922 22.2969C51.0703 22.1562 51.6667 22.0859 52.2812 22.0859ZM53.5469 26.9531L52.625 26.9844C51.8542 27.0052 51.3177 27.1432 51.0156 27.3984C50.7188 27.6536 50.5703 27.9896 50.5703 28.4062C50.5703 28.7708 50.6771 29.0312 50.8906 29.1875C51.1042 29.3385 51.3828 29.4141 51.7266 29.4141C52.237 29.4141 52.6667 29.263 53.0156 28.9609C53.3698 28.6589 53.5469 28.2292 53.5469 27.6719V26.9531ZM63.3359 22.1016C64.2682 22.1016 65.0182 22.3568 65.5859 22.8672C66.1536 23.3724 66.4375 24.1849 66.4375 25.3047V31H64.0547V25.8984C64.0547 25.2734 63.9401 24.8021 63.7109 24.4844C63.487 24.1667 63.1328 24.0078 62.6484 24.0078C61.9193 24.0078 61.4219 24.2552 61.1562 24.75C60.8906 25.2448 60.7578 25.9583 60.7578 26.8906V31H58.375V22.2656H60.1953L60.5156 23.3828H60.6484C60.8359 23.0807 61.0677 22.8359 61.3438 22.6484C61.625 22.4609 61.9349 22.3229 62.2734 22.2344C62.6172 22.1458 62.9714 22.1016 63.3359 22.1016ZM76.8281 26.6172C76.8281 27.3464 76.7292 27.9922 76.5312 28.5547C76.3385 29.1172 76.0547 29.5938 75.6797 29.9844C75.3099 30.3698 74.862 30.6615 74.3359 30.8594C73.8151 31.0573 73.2266 31.1562 72.5703 31.1562C71.9557 31.1562 71.3906 31.0573 70.875 30.8594C70.3646 30.6615 69.9193 30.3698 69.5391 29.9844C69.1641 29.5938 68.8724 29.1172 68.6641 28.5547C68.4609 27.9922 68.3594 27.3464 68.3594 26.6172C68.3594 25.6484 68.5312 24.8281 68.875 24.1562C69.2188 23.4844 69.7083 22.974 70.3438 22.625C70.9792 22.276 71.737 22.1016 72.6172 22.1016C73.4349 22.1016 74.1589 22.276 74.7891 22.625C75.4245 22.974 75.9219 23.4844 76.2812 24.1562C76.6458 24.8281 76.8281 25.6484 76.8281 26.6172ZM70.7891 26.6172C70.7891 27.1901 70.8516 27.6719 70.9766 28.0625C71.1016 28.4531 71.2969 28.7474 71.5625 28.9453C71.8281 29.1432 72.1745 29.2422 72.6016 29.2422C73.0234 29.2422 73.3646 29.1432 73.625 28.9453C73.8906 28.7474 74.0833 28.4531 74.2031 28.0625C74.3281 27.6719 74.3906 27.1901 74.3906 26.6172C74.3906 26.0391 74.3281 25.5599 74.2031 25.1797C74.0833 24.7943 73.8906 24.5052 73.625 24.3125C73.3594 24.1198 73.013 24.0234 72.5859 24.0234C71.9557 24.0234 71.4974 24.2396 71.2109 24.6719C70.9297 25.1042 70.7891 25.7526 70.7891 26.6172ZM82.4766 29.2578C82.737 29.2578 82.9896 29.2318 83.2344 29.1797C83.4844 29.1276 83.7318 29.0625 83.9766 28.9844V30.7578C83.7214 30.8724 83.4036 30.9661 83.0234 31.0391C82.6484 31.1172 82.237 31.1562 81.7891 31.1562C81.2682 31.1562 80.7995 31.0729 80.3828 30.9062C79.9714 30.7344 79.6458 30.4401 79.4062 30.0234C79.1719 29.6016 79.0547 29.0156 79.0547 28.2656V24.0547H77.9141V23.0469L79.2266 22.25L79.9141 20.4062H81.4375V22.2656H83.8828V24.0547H81.4375V28.2656C81.4375 28.599 81.5312 28.849 81.7188 29.0156C81.9115 29.1771 82.1641 29.2578 82.4766 29.2578ZM88.1328 18.8438V21.3203C88.1328 21.7526 88.1172 22.1641 88.0859 22.5547C88.0599 22.9453 88.0391 23.2214 88.0234 23.3828H88.1484C88.3359 23.0807 88.5573 22.8359 88.8125 22.6484C89.0729 22.4609 89.3594 22.3229 89.6719 22.2344C89.9844 22.1458 90.3203 22.1016 90.6797 22.1016C91.3099 22.1016 91.8594 22.2135 92.3281 22.4375C92.7969 22.6562 93.1615 23.0026 93.4219 23.4766C93.6823 23.9453 93.8125 24.5547 93.8125 25.3047V31H91.4297V25.8984C91.4297 25.2734 91.3151 24.8021 91.0859 24.4844C90.8568 24.1667 90.5026 24.0078 90.0234 24.0078C89.5443 24.0078 89.1667 24.1198 88.8906 24.3438C88.6146 24.5625 88.4193 24.888 88.3047 25.3203C88.1901 25.7474 88.1328 26.2708 88.1328 26.8906V31H85.75V18.8438H88.1328ZM99.8672 22.1016C100.674 22.1016 101.37 22.2578 101.953 22.5703C102.536 22.8776 102.987 23.3255 103.305 23.9141C103.622 24.5026 103.781 25.2214 103.781 26.0703V27.2266H98.1484C98.1745 27.8984 98.375 28.4271 98.75 28.8125C99.1302 29.1927 99.6562 29.3828 100.328 29.3828C100.885 29.3828 101.396 29.3255 101.859 29.2109C102.323 29.0964 102.799 28.9245 103.289 28.6953V30.5391C102.857 30.7526 102.404 30.9089 101.93 31.0078C101.461 31.1068 100.891 31.1562 100.219 31.1562C99.3438 31.1562 98.5677 30.9948 97.8906 30.6719C97.2188 30.349 96.6901 29.8568 96.3047 29.1953C95.9245 28.5339 95.7344 27.7005 95.7344 26.6953C95.7344 25.6745 95.9062 24.8255 96.25 24.1484C96.599 23.4661 97.0833 22.9557 97.7031 22.6172C98.3229 22.2734 99.0443 22.1016 99.8672 22.1016ZM99.8828 23.7969C99.4193 23.7969 99.0339 23.9453 98.7266 24.2422C98.4245 24.5391 98.25 25.0052 98.2031 25.6406H101.547C101.542 25.2865 101.477 24.9714 101.352 24.6953C101.232 24.4193 101.049 24.2005 100.805 24.0391C100.565 23.8776 100.258 23.7969 99.8828 23.7969ZM110.594 22.1016C110.714 22.1016 110.852 22.1094 111.008 22.125C111.169 22.1354 111.299 22.151 111.398 22.1719L111.219 24.4062C111.141 24.3802 111.029 24.362 110.883 24.3516C110.742 24.3359 110.62 24.3281 110.516 24.3281C110.208 24.3281 109.909 24.3672 109.617 24.4453C109.331 24.5234 109.073 24.651 108.844 24.8281C108.615 25 108.432 25.2292 108.297 25.5156C108.167 25.7969 108.102 26.1432 108.102 26.5547V31H105.719V22.2656H107.523L107.875 23.7344H107.992C108.164 23.4375 108.378 23.1667 108.633 22.9219C108.893 22.6719 109.188 22.474 109.516 22.3281C109.849 22.1771 110.208 22.1016 110.594 22.1016ZM120.82 29.2578C121.081 29.2578 121.333 29.2318 121.578 29.1797C121.828 29.1276 122.076 29.0625 122.32 28.9844V30.7578C122.065 30.8724 121.747 30.9661 121.367 31.0391C120.992 31.1172 120.581 31.1562 120.133 31.1562C119.612 31.1562 119.143 31.0729 118.727 30.9062C118.315 30.7344 117.99 30.4401 117.75 30.0234C117.516 29.6016 117.398 29.0156 117.398 28.2656V24.0547H116.258V23.0469L117.57 22.25L118.258 20.4062H119.781V22.2656H122.227V24.0547H119.781V28.2656C119.781 28.599 119.875 28.849 120.062 29.0156C120.255 29.1771 120.508 29.2578 120.82 29.2578ZM126.477 18.8438V21.3203C126.477 21.7526 126.461 22.1641 126.43 22.5547C126.404 22.9453 126.383 23.2214 126.367 23.3828H126.492C126.68 23.0807 126.901 22.8359 127.156 22.6484C127.417 22.4609 127.703 22.3229 128.016 22.2344C128.328 22.1458 128.664 22.1016 129.023 22.1016C129.654 22.1016 130.203 22.2135 130.672 22.4375C131.141 22.6562 131.505 23.0026 131.766 23.4766C132.026 23.9453 132.156 24.5547 132.156 25.3047V31H129.773V25.8984C129.773 25.2734 129.659 24.8021 129.43 24.4844C129.201 24.1667 128.846 24.0078 128.367 24.0078C127.888 24.0078 127.51 24.1198 127.234 24.3438C126.958 24.5625 126.763 24.888 126.648 25.3203C126.534 25.7474 126.477 26.2708 126.477 26.8906V31H124.094V18.8438H126.477ZM136.992 22.2656V31H134.609V22.2656H136.992ZM135.805 18.8438C136.159 18.8438 136.464 18.9271 136.719 19.0938C136.974 19.2552 137.102 19.5599 137.102 20.0078C137.102 20.4505 136.974 20.7578 136.719 20.9297C136.464 21.0964 136.159 21.1797 135.805 21.1797C135.445 21.1797 135.138 21.0964 134.883 20.9297C134.633 20.7578 134.508 20.4505 134.508 20.0078C134.508 19.5599 134.633 19.2552 134.883 19.0938C135.138 18.9271 135.445 18.8438 135.805 18.8438ZM144.461 22.1016C145.393 22.1016 146.143 22.3568 146.711 22.8672C147.279 23.3724 147.562 24.1849 147.562 25.3047V31H145.18V25.8984C145.18 25.2734 145.065 24.8021 144.836 24.4844C144.612 24.1667 144.258 24.0078 143.773 24.0078C143.044 24.0078 142.547 24.2552 142.281 24.75C142.016 25.2448 141.883 25.9583 141.883 26.8906V31H139.5V22.2656H141.32L141.641 23.3828H141.773C141.961 23.0807 142.193 22.8359 142.469 22.6484C142.75 22.4609 143.06 22.3229 143.398 22.2344C143.742 22.1458 144.096 22.1016 144.461 22.1016ZM152.57 34.8438C151.352 34.8438 150.419 34.6302 149.773 34.2031C149.133 33.7812 148.812 33.1875 148.812 32.4219C148.812 31.8958 148.977 31.4557 149.305 31.1016C149.633 30.7474 150.115 30.4948 150.75 30.3438C150.505 30.2396 150.292 30.0703 150.109 29.8359C149.927 29.5964 149.836 29.3438 149.836 29.0781C149.836 28.7448 149.932 28.4688 150.125 28.25C150.318 28.026 150.596 27.8073 150.961 27.5938C150.503 27.3958 150.138 27.0781 149.867 26.6406C149.602 26.2031 149.469 25.6875 149.469 25.0938C149.469 24.4583 149.607 23.9193 149.883 23.4766C150.164 23.0286 150.57 22.6875 151.102 22.4531C151.638 22.2188 152.289 22.1016 153.055 22.1016C153.216 22.1016 153.404 22.112 153.617 22.1328C153.831 22.1536 154.026 22.1771 154.203 22.2031C154.385 22.2292 154.508 22.25 154.57 22.2656H157.617V23.4766L156.25 23.8281C156.375 24.0208 156.469 24.2266 156.531 24.4453C156.594 24.6641 156.625 24.8958 156.625 25.1406C156.625 26.0781 156.297 26.8099 155.641 27.3359C154.99 27.8568 154.083 28.1172 152.922 28.1172C152.646 28.1016 152.385 28.0807 152.141 28.0547C152.021 28.1484 151.93 28.2474 151.867 28.3516C151.805 28.4557 151.773 28.5651 151.773 28.6797C151.773 28.7943 151.82 28.8906 151.914 28.9688C152.013 29.0417 152.159 29.099 152.352 29.1406C152.549 29.1771 152.794 29.1953 153.086 29.1953H154.57C155.529 29.1953 156.258 29.401 156.758 29.8125C157.263 30.224 157.516 30.8281 157.516 31.625C157.516 32.6458 157.089 33.4375 156.234 34C155.385 34.5625 154.164 34.8438 152.57 34.8438ZM152.672 33.2891C153.24 33.2891 153.727 33.2344 154.133 33.125C154.544 33.0208 154.859 32.8698 155.078 32.6719C155.297 32.4792 155.406 32.2474 155.406 31.9766C155.406 31.7578 155.341 31.5833 155.211 31.4531C155.086 31.3281 154.893 31.2396 154.633 31.1875C154.378 31.1354 154.049 31.1094 153.648 31.1094H152.414C152.122 31.1094 151.859 31.1562 151.625 31.25C151.396 31.3438 151.214 31.474 151.078 31.6406C150.943 31.8125 150.875 32.0104 150.875 32.2344C150.875 32.5625 151.031 32.8203 151.344 33.0078C151.661 33.1953 152.104 33.2891 152.672 33.2891ZM153.055 26.6641C153.503 26.6641 153.831 26.526 154.039 26.25C154.247 25.974 154.352 25.599 154.352 25.125C154.352 24.599 154.242 24.2057 154.023 23.9453C153.81 23.6797 153.487 23.5469 153.055 23.5469C152.617 23.5469 152.289 23.6797 152.07 23.9453C151.852 24.2057 151.742 24.599 151.742 25.125C151.742 25.599 151.849 25.974 152.062 26.25C152.281 26.526 152.612 26.6641 153.055 26.6641ZM18.4922 59.8438V56.1797C18.4922 55.9609 18.5 55.7422 18.5156 55.5234C18.5365 55.2995 18.5625 55.0807 18.5938 54.8672H18.4922C18.2682 55.2266 17.9583 55.5312 17.5625 55.7812C17.1719 56.0312 16.6562 56.1562 16.0156 56.1562C15.0312 56.1562 14.2344 55.776 13.625 55.0156C13.0208 54.25 12.7188 53.1276 12.7188 51.6484C12.7188 50.6536 12.8594 49.8203 13.1406 49.1484C13.4219 48.4714 13.8125 47.9609 14.3125 47.6172C14.8177 47.2734 15.401 47.1016 16.0625 47.1016C16.7031 47.1016 17.2214 47.2266 17.6172 47.4766C18.0182 47.7214 18.3438 48.0234 18.5938 48.3828H18.6562L18.8672 47.2656H20.8828V59.8438H18.4922ZM16.8672 54.2891C17.3047 54.2891 17.651 54.2031 17.9062 54.0312C18.1667 53.8594 18.3542 53.6016 18.4688 53.2578C18.5833 52.9089 18.6458 52.474 18.6562 51.9531V51.6641C18.6562 50.8151 18.526 50.1667 18.2656 49.7188C18.0052 49.2656 17.526 49.0391 16.8281 49.0391C16.2604 49.0391 15.8385 49.2656 15.5625 49.7188C15.2865 50.1719 15.1484 50.8255 15.1484 51.6797C15.1484 52.5495 15.2891 53.2031 15.5703 53.6406C15.8516 54.0729 16.2839 54.2891 16.8672 54.2891ZM31.3906 47.2656V56H29.5625L29.2422 54.8828H29.1172C28.9297 55.1797 28.6953 55.4219 28.4141 55.6094C28.1328 55.7969 27.8229 55.9349 27.4844 56.0234C27.1458 56.112 26.7943 56.1562 26.4297 56.1562C25.8047 56.1562 25.2604 56.0469 24.7969 55.8281C24.3333 55.6042 23.9714 55.2578 23.7109 54.7891C23.4557 54.3203 23.3281 53.7109 23.3281 52.9609V47.2656H25.7109V52.3672C25.7109 52.9922 25.8229 53.4635 26.0469 53.7812C26.2708 54.099 26.6276 54.2578 27.1172 54.2578C27.6016 54.2578 27.9818 54.1484 28.2578 53.9297C28.5339 53.7057 28.7266 53.3802 28.8359 52.9531C28.9505 52.5208 29.0078 51.9948 29.0078 51.375V47.2656H31.3906ZM37.4922 47.1016C38.2995 47.1016 38.9948 47.2578 39.5781 47.5703C40.1615 47.8776 40.612 48.3255 40.9297 48.9141C41.2474 49.5026 41.4062 50.2214 41.4062 51.0703V52.2266H35.7734C35.7995 52.8984 36 53.4271 36.375 53.8125C36.7552 54.1927 37.2812 54.3828 37.9531 54.3828C38.5104 54.3828 39.0208 54.3255 39.4844 54.2109C39.9479 54.0964 40.4245 53.9245 40.9141 53.6953V55.5391C40.4818 55.7526 40.0286 55.9089 39.5547 56.0078C39.0859 56.1068 38.5156 56.1562 37.8438 56.1562C36.9688 56.1562 36.1927 55.9948 35.5156 55.6719C34.8438 55.349 34.3151 54.8568 33.9297 54.1953C33.5495 53.5339 33.3594 52.7005 33.3594 51.6953C33.3594 50.6745 33.5312 49.8255 33.875 49.1484C34.224 48.4661 34.7083 47.9557 35.3281 47.6172C35.9479 47.2734 36.6693 47.1016 37.4922 47.1016ZM37.5078 48.7969C37.0443 48.7969 36.6589 48.9453 36.3516 49.2422C36.0495 49.5391 35.875 50.0052 35.8281 50.6406H39.1719C39.1667 50.2865 39.1016 49.9714 38.9766 49.6953C38.8568 49.4193 38.6745 49.2005 38.4297 49.0391C38.1901 48.8776 37.8828 48.7969 37.5078 48.7969ZM49.4375 53.4062C49.4375 54 49.2969 54.5026 49.0156 54.9141C48.7396 55.3203 48.3255 55.6302 47.7734 55.8438C47.2214 56.0521 46.5339 56.1562 45.7109 56.1562C45.1016 56.1562 44.5781 56.1172 44.1406 56.0391C43.7083 55.9609 43.2708 55.8307 42.8281 55.6484V53.6797C43.3021 53.8932 43.8099 54.0703 44.3516 54.2109C44.8984 54.3464 45.3776 54.4141 45.7891 54.4141C46.2526 54.4141 46.5833 54.3464 46.7812 54.2109C46.9844 54.0703 47.0859 53.888 47.0859 53.6641C47.0859 53.5182 47.0443 53.388 46.9609 53.2734C46.8828 53.1536 46.7109 53.0208 46.4453 52.875C46.1797 52.724 45.763 52.5286 45.1953 52.2891C44.6484 52.0599 44.1979 51.8281 43.8438 51.5938C43.4948 51.3594 43.2344 51.0833 43.0625 50.7656C42.8958 50.4427 42.8125 50.0339 42.8125 49.5391C42.8125 48.7318 43.125 48.125 43.75 47.7188C44.3802 47.3073 45.2214 47.1016 46.2734 47.1016C46.8151 47.1016 47.3307 47.1562 47.8203 47.2656C48.3151 47.375 48.8229 47.5495 49.3438 47.7891L48.625 49.5078C48.1927 49.3203 47.7839 49.1667 47.3984 49.0469C47.0182 48.9271 46.6302 48.8672 46.2344 48.8672C45.8854 48.8672 45.6224 48.9141 45.4453 49.0078C45.2682 49.1016 45.1797 49.2448 45.1797 49.4375C45.1797 49.5781 45.224 49.7031 45.3125 49.8125C45.4062 49.9219 45.5833 50.0443 45.8438 50.1797C46.1094 50.3099 46.4974 50.4792 47.0078 50.6875C47.5026 50.8906 47.9323 51.1042 48.2969 51.3281C48.6615 51.5469 48.9427 51.8203 49.1406 52.1484C49.3385 52.4714 49.4375 52.8906 49.4375 53.4062ZM54.9766 54.2578C55.237 54.2578 55.4896 54.2318 55.7344 54.1797C55.9844 54.1276 56.2318 54.0625 56.4766 53.9844V55.7578C56.2214 55.8724 55.9036 55.9661 55.5234 56.0391C55.1484 56.1172 54.737 56.1562 54.2891 56.1562C53.7682 56.1562 53.2995 56.0729 52.8828 55.9062C52.4714 55.7344 52.1458 55.4401 51.9062 55.0234C51.6719 54.6016 51.5547 54.0156 51.5547 53.2656V49.0547H50.4141V48.0469L51.7266 47.25L52.4141 45.4062H53.9375V47.2656H56.3828V49.0547H53.9375V53.2656C53.9375 53.599 54.0312 53.849 54.2188 54.0156C54.4115 54.1771 54.6641 54.2578 54.9766 54.2578ZM60.6328 47.2656V56H58.25V47.2656H60.6328ZM59.4453 43.8438C59.7995 43.8438 60.1042 43.9271 60.3594 44.0938C60.6146 44.2552 60.7422 44.5599 60.7422 45.0078C60.7422 45.4505 60.6146 45.7578 60.3594 45.9297C60.1042 46.0964 59.7995 46.1797 59.4453 46.1797C59.0859 46.1797 58.7786 46.0964 58.5234 45.9297C58.2734 45.7578 58.1484 45.4505 58.1484 45.0078C58.1484 44.5599 58.2734 44.2552 58.5234 44.0938C58.7786 43.9271 59.0859 43.8438 59.4453 43.8438ZM71.0781 51.6172C71.0781 52.3464 70.9792 52.9922 70.7812 53.5547C70.5885 54.1172 70.3047 54.5938 69.9297 54.9844C69.5599 55.3698 69.112 55.6615 68.5859 55.8594C68.0651 56.0573 67.4766 56.1562 66.8203 56.1562C66.2057 56.1562 65.6406 56.0573 65.125 55.8594C64.6146 55.6615 64.1693 55.3698 63.7891 54.9844C63.4141 54.5938 63.1224 54.1172 62.9141 53.5547C62.7109 52.9922 62.6094 52.3464 62.6094 51.6172C62.6094 50.6484 62.7812 49.8281 63.125 49.1562C63.4688 48.4844 63.9583 47.974 64.5938 47.625C65.2292 47.276 65.987 47.1016 66.8672 47.1016C67.6849 47.1016 68.4089 47.276 69.0391 47.625C69.6745 47.974 70.1719 48.4844 70.5312 49.1562C70.8958 49.8281 71.0781 50.6484 71.0781 51.6172ZM65.0391 51.6172C65.0391 52.1901 65.1016 52.6719 65.2266 53.0625C65.3516 53.4531 65.5469 53.7474 65.8125 53.9453C66.0781 54.1432 66.4245 54.2422 66.8516 54.2422C67.2734 54.2422 67.6146 54.1432 67.875 53.9453C68.1406 53.7474 68.3333 53.4531 68.4531 53.0625C68.5781 52.6719 68.6406 52.1901 68.6406 51.6172C68.6406 51.0391 68.5781 50.5599 68.4531 50.1797C68.3333 49.7943 68.1406 49.5052 67.875 49.3125C67.6094 49.1198 67.263 49.0234 66.8359 49.0234C66.2057 49.0234 65.7474 49.2396 65.4609 49.6719C65.1797 50.1042 65.0391 50.7526 65.0391 51.6172ZM78.0078 47.1016C78.9401 47.1016 79.6901 47.3568 80.2578 47.8672C80.8255 48.3724 81.1094 49.1849 81.1094 50.3047V56H78.7266V50.8984C78.7266 50.2734 78.612 49.8021 78.3828 49.4844C78.1589 49.1667 77.8047 49.0078 77.3203 49.0078C76.5911 49.0078 76.0938 49.2552 75.8281 49.75C75.5625 50.2448 75.4297 50.9583 75.4297 51.8906V56H73.0469V47.2656H74.8672L75.1875 48.3828H75.3203C75.5078 48.0807 75.7396 47.8359 76.0156 47.6484C76.2969 47.4609 76.6068 47.3229 76.9453 47.2344C77.2891 47.1458 77.6432 47.1016 78.0078 47.1016ZM89.6562 53.4062C89.6562 54 89.5156 54.5026 89.2344 54.9141C88.9583 55.3203 88.5443 55.6302 87.9922 55.8438C87.4401 56.0521 86.7526 56.1562 85.9297 56.1562C85.3203 56.1562 84.7969 56.1172 84.3594 56.0391C83.9271 55.9609 83.4896 55.8307 83.0469 55.6484V53.6797C83.5208 53.8932 84.0286 54.0703 84.5703 54.2109C85.1172 54.3464 85.5964 54.4141 86.0078 54.4141C86.4714 54.4141 86.8021 54.3464 87 54.2109C87.2031 54.0703 87.3047 53.888 87.3047 53.6641C87.3047 53.5182 87.263 53.388 87.1797 53.2734C87.1016 53.1536 86.9297 53.0208 86.6641 52.875C86.3984 52.724 85.9818 52.5286 85.4141 52.2891C84.8672 52.0599 84.4167 51.8281 84.0625 51.5938C83.7135 51.3594 83.4531 51.0833 83.2812 50.7656C83.1146 50.4427 83.0312 50.0339 83.0312 49.5391C83.0312 48.7318 83.3438 48.125 83.9688 47.7188C84.599 47.3073 85.4401 47.1016 86.4922 47.1016C87.0339 47.1016 87.5495 47.1562 88.0391 47.2656C88.5339 47.375 89.0417 47.5495 89.5625 47.7891L88.8438 49.5078C88.4115 49.3203 88.0026 49.1667 87.6172 49.0469C87.237 48.9271 86.849 48.8672 86.4531 48.8672C86.1042 48.8672 85.8411 48.9141 85.6641 49.0078C85.487 49.1016 85.3984 49.2448 85.3984 49.4375C85.3984 49.5781 85.4427 49.7031 85.5312 49.8125C85.625 49.9219 85.8021 50.0443 86.0625 50.1797C86.3281 50.3099 86.7161 50.4792 87.2266 50.6875C87.7214 50.8906 88.151 51.1042 88.5156 51.3281C88.8802 51.5469 89.1615 51.8203 89.3594 52.1484C89.5573 52.4714 89.6562 52.8906 89.6562 53.4062Z" fill="#0B0C0C"/>
<rect x="12" y="103.762" width="117" height="2.04762" fill="#BFC1C3"/>
<rect x="12" y="87.3828" width="117" height="2.04762" fill="#BFC1C3"/>
<rect x="12" y="71" width="117" height="2.04762" fill="#BFC1C3"/>
<rect x="112.75" y="79.1914" width="16.25" height="2.04762" fill="#005EA5"/>
<rect x="112.75" y="111.953" width="16.25" height="2.04762" fill="#005EA5"/>
<rect x="112.75" y="95.5742" width="16.25" height="2.04762" fill="#005EA5"/>
<rect x="12" y="79.1914" width="19.5" height="2.04762" fill="#0B0C0C"/>
<rect x="42.875" y="79.1914" width="53.625" height="2.04762" fill="#0B0C0C"/>
<rect x="12" y="111.953" width="19.5" height="2.04762" fill="#0B0C0C"/>
<rect x="42.875" y="111.953" width="53.625" height="2.04762" fill="#0B0C0C"/>
<rect x="12" y="95.5742" width="19.5" height="2.04762" fill="#0B0C0C"/>
<rect x="42.875" y="95.5742" width="53.625" height="2.04762" fill="#0B0C0C"/>
<path d="M0 124H240V155H0V124Z" fill="#0B0C0C"/>
<path d="M0 155H240V186H0V155Z" fill="#0B0C0C"/>
<path d="M0 186H240V216H0V186Z" fill="#0B0C0C"/>
<path d="M16.4365 144H11.2695V134.72H16.4365V135.672H12.3486V138.674H16.2017V139.614H12.3486V143.048H16.4365V144ZM20.8101 144.127C19.9299 144.127 19.2316 143.826 18.7153 143.226C18.2033 142.625 17.9473 141.732 17.9473 140.547C17.9473 139.349 18.2096 138.446 18.7344 137.836C19.2591 137.223 19.9574 136.916 20.8291 136.916C21.1973 136.916 21.5189 136.965 21.7939 137.062C22.069 137.159 22.306 137.291 22.5049 137.456C22.7038 137.616 22.8709 137.8 23.0063 138.008H23.0825C23.0656 137.877 23.0487 137.697 23.0317 137.468C23.0148 137.24 23.0063 137.054 23.0063 136.91V134.123H24.0601V144H23.2095L23.0508 143.01H23.0063C22.8752 143.217 22.708 143.405 22.5049 143.575C22.306 143.744 22.0669 143.879 21.7876 143.981C21.5125 144.078 21.1867 144.127 20.8101 144.127ZM20.9751 143.251C21.7199 143.251 22.2467 143.039 22.5557 142.616C22.8646 142.193 23.019 141.565 23.019 140.731V140.541C23.019 139.656 22.8709 138.977 22.5747 138.503C22.2827 138.029 21.7495 137.792 20.9751 137.792C20.3276 137.792 19.8431 138.042 19.5215 138.541C19.1999 139.036 19.0391 139.713 19.0391 140.572C19.0391 141.427 19.1978 142.087 19.5151 142.553C19.8368 143.018 20.3234 143.251 20.9751 143.251ZM27.3481 137.043V144H26.2944V137.043H27.3481ZM26.834 134.44C27.0075 134.44 27.1556 134.498 27.2783 134.612C27.4053 134.722 27.4688 134.895 27.4688 135.132C27.4688 135.365 27.4053 135.539 27.2783 135.653C27.1556 135.767 27.0075 135.824 26.834 135.824C26.652 135.824 26.4997 135.767 26.377 135.653C26.2585 135.539 26.1992 135.365 26.1992 135.132C26.1992 134.895 26.2585 134.722 26.377 134.612C26.4997 134.498 26.652 134.44 26.834 134.44ZM31.8296 143.264C32.0031 143.264 32.1808 143.249 32.3628 143.219C32.5448 143.19 32.6929 143.154 32.8071 143.111V143.93C32.6844 143.985 32.513 144.032 32.293 144.07C32.0771 144.108 31.8656 144.127 31.6582 144.127C31.29 144.127 30.9557 144.063 30.6553 143.937C30.3548 143.805 30.1136 143.585 29.9316 143.276C29.7539 142.967 29.665 142.54 29.665 141.994V137.868H28.6748V137.354L29.6714 136.941L30.0903 135.431H30.7251V137.043H32.7627V137.868H30.7251V141.962C30.7251 142.398 30.8245 142.724 31.0234 142.94C31.2266 143.156 31.4953 143.264 31.8296 143.264ZM42.2588 147.11V144.127C42.2588 143.962 42.263 143.771 42.2715 143.556C42.2799 143.34 42.2948 143.154 42.3159 142.997H42.2461C42.0514 143.319 41.7743 143.587 41.4146 143.803C41.0549 144.019 40.5915 144.127 40.0244 144.127C39.1738 144.127 38.4904 143.826 37.9741 143.226C37.4578 142.625 37.1997 141.728 37.1997 140.534C37.1997 139.751 37.3182 139.091 37.5552 138.554C37.7922 138.016 38.1265 137.61 38.5581 137.335C38.994 137.056 39.5018 136.916 40.0815 136.916C40.6359 136.916 41.0887 137.026 41.4399 137.246C41.7912 137.462 42.0662 137.726 42.2651 138.04H42.3159L42.4746 137.043H43.3125V147.11H42.2588ZM40.2212 143.251C40.7121 143.251 41.1056 143.16 41.4019 142.978C41.6981 142.792 41.9139 142.513 42.0493 142.14C42.189 141.768 42.263 141.304 42.2715 140.75V140.528C42.2715 139.631 42.1191 138.951 41.8145 138.49C41.5098 138.025 40.9787 137.792 40.2212 137.792C39.5695 137.792 39.085 138.042 38.7676 138.541C38.4502 139.036 38.2915 139.709 38.2915 140.56C38.2915 141.41 38.4502 142.072 38.7676 142.546C39.085 143.016 39.5695 143.251 40.2212 143.251ZM51.2979 137.043V144H50.4346L50.2822 143.022H50.2251C50.0812 143.264 49.895 143.467 49.6665 143.632C49.438 143.797 49.1799 143.92 48.8921 144C48.6086 144.085 48.306 144.127 47.9844 144.127C47.4342 144.127 46.973 144.038 46.6006 143.86C46.2282 143.683 45.9468 143.408 45.7563 143.035C45.5701 142.663 45.4771 142.185 45.4771 141.601V137.043H46.5435V141.524C46.5435 142.104 46.6746 142.538 46.937 142.826C47.1994 143.109 47.5993 143.251 48.1367 143.251C48.653 143.251 49.0635 143.154 49.3682 142.959C49.6771 142.764 49.8993 142.479 50.0347 142.102C50.1701 141.721 50.2378 141.256 50.2378 140.706V137.043H51.2979ZM56.2046 136.916C56.797 136.916 57.3049 137.047 57.728 137.31C58.1512 137.572 58.4749 137.94 58.6992 138.414C58.9235 138.884 59.0356 139.434 59.0356 140.064V140.718H54.2305C54.2432 141.535 54.4463 142.157 54.8398 142.584C55.2334 143.012 55.7878 143.226 56.5029 143.226C56.943 143.226 57.3324 143.185 57.6709 143.105C58.0094 143.025 58.3607 142.906 58.7246 142.75V143.676C58.3734 143.833 58.0243 143.947 57.6772 144.019C57.3345 144.091 56.9282 144.127 56.4585 144.127C55.7899 144.127 55.2059 143.992 54.7065 143.721C54.2114 143.446 53.8263 143.044 53.5513 142.515C53.2762 141.986 53.1387 141.338 53.1387 140.572C53.1387 139.823 53.2635 139.176 53.5132 138.63C53.7671 138.08 54.1226 137.657 54.5796 137.36C55.0409 137.064 55.5825 136.916 56.2046 136.916ZM56.1919 137.779C55.6291 137.779 55.1805 137.963 54.8462 138.332C54.5119 138.7 54.313 139.214 54.2495 139.874H57.9312C57.9269 139.459 57.8613 139.095 57.7344 138.782C57.6117 138.465 57.4233 138.219 57.1694 138.046C56.9155 137.868 56.5897 137.779 56.1919 137.779ZM65.3262 142.096C65.3262 142.54 65.214 142.915 64.9897 143.219C64.7697 143.52 64.4523 143.746 64.0376 143.898C63.6271 144.051 63.1362 144.127 62.5649 144.127C62.0783 144.127 61.6572 144.089 61.3018 144.013C60.9463 143.937 60.6353 143.829 60.3687 143.689V142.718C60.6522 142.857 60.9907 142.984 61.3843 143.099C61.7778 143.213 62.1799 143.27 62.5903 143.27C63.1912 143.27 63.6271 143.173 63.8979 142.978C64.1688 142.783 64.3042 142.519 64.3042 142.185C64.3042 141.994 64.2492 141.827 64.1392 141.683C64.0334 141.535 63.8535 141.393 63.5996 141.258C63.3457 141.118 62.9945 140.966 62.5459 140.801C62.1016 140.632 61.7165 140.464 61.3906 140.299C61.069 140.13 60.8193 139.925 60.6416 139.684C60.4681 139.442 60.3813 139.129 60.3813 138.744C60.3813 138.156 60.6183 137.705 61.0923 137.392C61.5705 137.075 62.1968 136.916 62.9712 136.916C63.3901 136.916 63.7816 136.958 64.1455 137.043C64.5137 137.123 64.8564 137.233 65.1738 137.373L64.8184 138.217C64.5306 138.095 64.2238 137.991 63.8979 137.906C63.5721 137.822 63.2399 137.779 62.9014 137.779C62.4147 137.779 62.0402 137.86 61.7778 138.021C61.5197 138.181 61.3906 138.401 61.3906 138.681C61.3906 138.896 61.4499 139.074 61.5684 139.214C61.6911 139.354 61.8857 139.485 62.1523 139.607C62.4189 139.73 62.7702 139.874 63.2061 140.039C63.6419 140.2 64.0186 140.367 64.3359 140.541C64.6533 140.71 64.8966 140.917 65.0659 141.163C65.2394 141.404 65.3262 141.715 65.3262 142.096ZM69.2681 143.264C69.4416 143.264 69.6193 143.249 69.8013 143.219C69.9832 143.19 70.1313 143.154 70.2456 143.111V143.93C70.1229 143.985 69.9515 144.032 69.7314 144.07C69.5156 144.108 69.304 144.127 69.0967 144.127C68.7285 144.127 68.3942 144.063 68.0938 143.937C67.7933 143.805 67.5521 143.585 67.3701 143.276C67.1924 142.967 67.1035 142.54 67.1035 141.994V137.868H66.1133V137.354L67.1099 136.941L67.5288 135.431H68.1636V137.043H70.2012V137.868H68.1636V141.962C68.1636 142.398 68.263 142.724 68.4619 142.94C68.665 143.156 68.9338 143.264 69.2681 143.264ZM72.7085 137.043V144H71.6548V137.043H72.7085ZM72.1943 134.44C72.3678 134.44 72.516 134.498 72.6387 134.612C72.7656 134.722 72.8291 134.895 72.8291 135.132C72.8291 135.365 72.7656 135.539 72.6387 135.653C72.516 135.767 72.3678 135.824 72.1943 135.824C72.0124 135.824 71.86 135.767 71.7373 135.653C71.6188 135.539 71.5596 135.365 71.5596 135.132C71.5596 134.895 71.6188 134.722 71.7373 134.612C71.86 134.498 72.0124 134.44 72.1943 134.44ZM80.9414 140.509C80.9414 141.08 80.8674 141.59 80.7192 142.039C80.5711 142.487 80.3574 142.866 80.0781 143.175C79.7988 143.484 79.4603 143.721 79.0625 143.886C78.6689 144.047 78.2225 144.127 77.7231 144.127C77.2576 144.127 76.8302 144.047 76.4409 143.886C76.0558 143.721 75.7215 143.484 75.438 143.175C75.1587 142.866 74.9408 142.487 74.7842 142.039C74.6318 141.59 74.5557 141.08 74.5557 140.509C74.5557 139.747 74.6847 139.1 74.9429 138.566C75.201 138.029 75.5692 137.621 76.0474 137.341C76.5298 137.058 77.1032 136.916 77.7676 136.916C78.4023 136.916 78.9567 137.058 79.4307 137.341C79.9089 137.625 80.2791 138.035 80.5415 138.573C80.8081 139.106 80.9414 139.751 80.9414 140.509ZM75.6475 140.509C75.6475 141.067 75.7215 141.552 75.8696 141.962C76.0177 142.373 76.2463 142.69 76.5552 142.915C76.8641 143.139 77.2619 143.251 77.7485 143.251C78.231 143.251 78.6266 143.139 78.9355 142.915C79.2487 142.69 79.4793 142.373 79.6274 141.962C79.7756 141.552 79.8496 141.067 79.8496 140.509C79.8496 139.954 79.7756 139.476 79.6274 139.074C79.4793 138.668 79.2508 138.355 78.9419 138.135C78.633 137.915 78.2331 137.805 77.7422 137.805C77.0186 137.805 76.4875 138.044 76.1489 138.522C75.8146 139 75.6475 139.662 75.6475 140.509ZM86.0576 136.916C86.8828 136.916 87.507 137.119 87.9302 137.525C88.3534 137.927 88.5649 138.575 88.5649 139.468V144H87.5239V139.538C87.5239 138.958 87.3906 138.524 87.124 138.236C86.8617 137.949 86.4575 137.805 85.9116 137.805C85.1414 137.805 84.5998 138.023 84.2866 138.458C83.9735 138.894 83.8169 139.527 83.8169 140.356V144H82.7632V137.043H83.6138L83.7725 138.046H83.8296C83.9777 137.8 84.166 137.595 84.3945 137.43C84.623 137.261 84.8791 137.134 85.1626 137.049C85.4461 136.96 85.7445 136.916 86.0576 136.916ZM98.6133 142.096C98.6133 142.54 98.5011 142.915 98.2769 143.219C98.0568 143.52 97.7394 143.746 97.3247 143.898C96.9142 144.051 96.4233 144.127 95.8521 144.127C95.3654 144.127 94.9443 144.089 94.5889 144.013C94.2334 143.937 93.9224 143.829 93.6558 143.689V142.718C93.9393 142.857 94.2778 142.984 94.6714 143.099C95.0649 143.213 95.467 143.27 95.8774 143.27C96.4784 143.27 96.9142 143.173 97.1851 142.978C97.4559 142.783 97.5913 142.519 97.5913 142.185C97.5913 141.994 97.5363 141.827 97.4263 141.683C97.3205 141.535 97.1406 141.393 96.8867 141.258C96.6328 141.118 96.2816 140.966 95.833 140.801C95.3887 140.632 95.0036 140.464 94.6777 140.299C94.3561 140.13 94.1064 139.925 93.9287 139.684C93.7552 139.442 93.6685 139.129 93.6685 138.744C93.6685 138.156 93.9054 137.705 94.3794 137.392C94.8576 137.075 95.4839 136.916 96.2583 136.916C96.6772 136.916 97.0687 136.958 97.4326 137.043C97.8008 137.123 98.1436 137.233 98.4609 137.373L98.1055 138.217C97.8177 138.095 97.5109 137.991 97.1851 137.906C96.8592 137.822 96.527 137.779 96.1885 137.779C95.7018 137.779 95.3273 137.86 95.0649 138.021C94.8068 138.181 94.6777 138.401 94.6777 138.681C94.6777 138.896 94.737 139.074 94.8555 139.214C94.9782 139.354 95.1729 139.485 95.4395 139.607C95.7061 139.73 96.0573 139.874 96.4932 140.039C96.929 140.2 97.3057 140.367 97.623 140.541C97.9404 140.71 98.1838 140.917 98.353 141.163C98.5265 141.404 98.6133 141.715 98.6133 142.096ZM102.987 136.916C103.579 136.916 104.087 137.047 104.51 137.31C104.933 137.572 105.257 137.94 105.481 138.414C105.706 138.884 105.818 139.434 105.818 140.064V140.718H101.013C101.025 141.535 101.229 142.157 101.622 142.584C102.016 143.012 102.57 143.226 103.285 143.226C103.725 143.226 104.115 143.185 104.453 143.105C104.792 143.025 105.143 142.906 105.507 142.75V143.676C105.156 143.833 104.806 143.947 104.459 144.019C104.117 144.091 103.71 144.127 103.241 144.127C102.572 144.127 101.988 143.992 101.489 143.721C100.994 143.446 100.609 143.044 100.333 142.515C100.058 141.986 99.9209 141.338 99.9209 140.572C99.9209 139.823 100.046 139.176 100.295 138.63C100.549 138.08 100.905 137.657 101.362 137.36C101.823 137.064 102.365 136.916 102.987 136.916ZM102.974 137.779C102.411 137.779 101.963 137.963 101.628 138.332C101.294 138.7 101.095 139.214 101.032 139.874H104.713C104.709 139.459 104.644 139.095 104.517 138.782C104.394 138.465 104.206 138.219 103.952 138.046C103.698 137.868 103.372 137.779 102.974 137.779ZM109.855 143.264C110.028 143.264 110.206 143.249 110.388 143.219C110.57 143.19 110.718 143.154 110.833 143.111V143.93C110.71 143.985 110.538 144.032 110.318 144.07C110.103 144.108 109.891 144.127 109.684 144.127C109.315 144.127 108.981 144.063 108.681 143.937C108.38 143.805 108.139 143.585 107.957 143.276C107.779 142.967 107.69 142.54 107.69 141.994V137.868H106.7V137.354L107.697 136.941L108.116 135.431H108.75V137.043H110.788V137.868H108.75V141.962C108.75 142.398 108.85 142.724 109.049 142.94C109.252 143.156 109.521 143.264 109.855 143.264Z" fill="white"/>
<path d="M18.6392 170.271C18.6392 171.316 18.4487 172.19 18.0679 172.893C17.687 173.591 17.1348 174.118 16.4111 174.473C15.6917 174.824 14.8179 175 13.7896 175H11.2695V165.72H14.0688C15.0125 165.72 15.825 165.893 16.5063 166.24C17.1877 166.583 17.7124 167.093 18.0806 167.77C18.453 168.443 18.6392 169.277 18.6392 170.271ZM17.5029 170.309C17.5029 169.475 17.3633 168.788 17.084 168.246C16.8089 167.704 16.4027 167.302 15.8652 167.04C15.332 166.773 14.6782 166.64 13.9038 166.64H12.3486V174.073H13.6626C14.9406 174.073 15.8991 173.758 16.5381 173.127C17.1813 172.497 17.5029 171.557 17.5029 170.309ZM23.2222 167.916C23.8146 167.916 24.3224 168.047 24.7456 168.31C25.1688 168.572 25.4925 168.94 25.7168 169.414C25.9411 169.884 26.0532 170.434 26.0532 171.064V171.718H21.248C21.2607 172.535 21.4639 173.157 21.8574 173.584C22.251 174.012 22.8053 174.226 23.5205 174.226C23.9606 174.226 24.3499 174.185 24.6885 174.105C25.027 174.025 25.3783 173.906 25.7422 173.75V174.676C25.391 174.833 25.0418 174.947 24.6948 175.019C24.3521 175.091 23.9458 175.127 23.4761 175.127C22.8075 175.127 22.2235 174.992 21.7241 174.721C21.229 174.446 20.8439 174.044 20.5688 173.515C20.2938 172.986 20.1562 172.338 20.1562 171.572C20.1562 170.823 20.2811 170.176 20.5308 169.63C20.7847 169.08 21.1401 168.657 21.5972 168.36C22.0584 168.064 22.6001 167.916 23.2222 167.916ZM23.2095 168.779C22.6466 168.779 22.1981 168.963 21.8638 169.332C21.5295 169.7 21.3306 170.214 21.2671 170.874H24.9487C24.9445 170.459 24.8789 170.095 24.752 169.782C24.6292 169.465 24.4409 169.219 24.187 169.046C23.9331 168.868 23.6073 168.779 23.2095 168.779ZM28.9033 175H27.8433V165.123H28.9033V175ZM33.8101 167.916C34.4025 167.916 34.9103 168.047 35.3335 168.31C35.7567 168.572 36.0804 168.94 36.3047 169.414C36.529 169.884 36.6411 170.434 36.6411 171.064V171.718H31.8359C31.8486 172.535 32.0518 173.157 32.4453 173.584C32.8389 174.012 33.3932 174.226 34.1084 174.226C34.5485 174.226 34.9378 174.185 35.2764 174.105C35.6149 174.025 35.9661 173.906 36.3301 173.75V174.676C35.9788 174.833 35.6297 174.947 35.2827 175.019C34.9399 175.091 34.5337 175.127 34.064 175.127C33.3953 175.127 32.8114 174.992 32.312 174.721C31.8169 174.446 31.4318 174.044 31.1567 173.515C30.8817 172.986 30.7441 172.338 30.7441 171.572C30.7441 170.823 30.869 170.176 31.1187 169.63C31.3726 169.08 31.728 168.657 32.1851 168.36C32.6463 168.064 33.188 167.916 33.8101 167.916ZM33.7974 168.779C33.2345 168.779 32.786 168.963 32.4517 169.332C32.1174 169.7 31.9185 170.214 31.855 170.874H35.5366C35.5324 170.459 35.4668 170.095 35.3398 169.782C35.2171 169.465 35.0288 169.219 34.7749 169.046C34.521 168.868 34.1951 168.779 33.7974 168.779ZM40.6782 174.264C40.8517 174.264 41.0295 174.249 41.2114 174.219C41.3934 174.19 41.5415 174.154 41.6558 174.111V174.93C41.533 174.985 41.3617 175.032 41.1416 175.07C40.9258 175.108 40.7142 175.127 40.5068 175.127C40.1387 175.127 39.8044 175.063 39.5039 174.937C39.2035 174.805 38.9622 174.585 38.7803 174.276C38.6025 173.967 38.5137 173.54 38.5137 172.994V168.868H37.5234V168.354L38.52 167.941L38.939 166.431H39.5737V168.043H41.6113V168.868H39.5737V172.962C39.5737 173.398 39.6732 173.724 39.8721 173.94C40.0752 174.156 40.3439 174.264 40.6782 174.264ZM45.7437 167.916C46.3361 167.916 46.8439 168.047 47.2671 168.31C47.6903 168.572 48.014 168.94 48.2383 169.414C48.4626 169.884 48.5747 170.434 48.5747 171.064V171.718H43.7695C43.7822 172.535 43.9854 173.157 44.3789 173.584C44.7725 174.012 45.3268 174.226 46.042 174.226C46.4821 174.226 46.8714 174.185 47.21 174.105C47.5485 174.025 47.8997 173.906 48.2637 173.75V174.676C47.9124 174.833 47.5633 174.947 47.2163 175.019C46.8735 175.091 46.4673 175.127 45.9976 175.127C45.3289 175.127 44.745 174.992 44.2456 174.721C43.7505 174.446 43.3654 174.044 43.0903 173.515C42.8153 172.986 42.6777 172.338 42.6777 171.572C42.6777 170.823 42.8026 170.176 43.0522 169.63C43.3062 169.08 43.6616 168.657 44.1187 168.36C44.5799 168.064 45.1216 167.916 45.7437 167.916ZM45.731 168.779C45.1681 168.779 44.7196 168.963 44.3853 169.332C44.0509 169.7 43.8521 170.214 43.7886 170.874H47.4702C47.466 170.459 47.4004 170.095 47.2734 169.782C47.1507 169.465 46.9624 169.219 46.7085 169.046C46.4546 168.868 46.1287 168.779 45.731 168.779Z" fill="white"/>
<path d="M13.6943 196.72C14.8919 196.72 15.7658 196.955 16.3159 197.424C16.8703 197.89 17.1475 198.558 17.1475 199.43C17.1475 199.824 17.0819 200.198 16.9507 200.554C16.8237 200.905 16.6164 201.216 16.3286 201.487C16.0409 201.753 15.6621 201.965 15.1924 202.122C14.7269 202.274 14.1556 202.35 13.4785 202.35H12.3486V206H11.2695V196.72H13.6943ZM13.5928 197.64H12.3486V201.423H13.3579C13.9504 201.423 14.4434 201.36 14.8369 201.233C15.2347 201.106 15.533 200.901 15.7319 200.617C15.9308 200.329 16.0303 199.949 16.0303 199.475C16.0303 198.857 15.8335 198.398 15.4399 198.097C15.0464 197.792 14.4307 197.64 13.5928 197.64ZM22.0923 198.916C22.2319 198.916 22.3779 198.924 22.5303 198.941C22.6826 198.954 22.818 198.973 22.9365 198.999L22.8032 199.976C22.689 199.946 22.562 199.923 22.4224 199.906C22.2827 199.889 22.1515 199.881 22.0288 199.881C21.7495 199.881 21.485 199.938 21.2354 200.052C20.9899 200.162 20.7741 200.323 20.5879 200.535C20.4017 200.742 20.2557 200.994 20.1499 201.29C20.0441 201.582 19.9912 201.908 19.9912 202.268V206H18.9312V199.043H19.8071L19.9214 200.325H19.9658C20.1097 200.067 20.2832 199.832 20.4863 199.621C20.6895 199.405 20.9243 199.233 21.1909 199.106C21.4618 198.979 21.7622 198.916 22.0923 198.916ZM26.9292 198.916C27.5216 198.916 28.0295 199.047 28.4526 199.31C28.8758 199.572 29.1995 199.94 29.4238 200.414C29.6481 200.884 29.7603 201.434 29.7603 202.064V202.718H24.9551C24.9678 203.535 25.1709 204.157 25.5645 204.584C25.958 205.012 26.5124 205.226 27.2275 205.226C27.6676 205.226 28.057 205.185 28.3955 205.105C28.734 205.025 29.0853 204.906 29.4492 204.75V205.676C29.098 205.833 28.7489 205.947 28.4019 206.019C28.0591 206.091 27.6528 206.127 27.1831 206.127C26.5145 206.127 25.9305 205.992 25.4312 205.721C24.936 205.446 24.5509 205.044 24.2759 204.515C24.0008 203.986 23.8633 203.338 23.8633 202.572C23.8633 201.823 23.9881 201.176 24.2378 200.63C24.4917 200.08 24.8472 199.657 25.3042 199.36C25.7655 199.064 26.3071 198.916 26.9292 198.916ZM26.9165 199.779C26.3537 199.779 25.9051 199.963 25.5708 200.332C25.2365 200.7 25.0376 201.214 24.9741 201.874H28.6558C28.6515 201.459 28.5859 201.095 28.459 200.782C28.3363 200.465 28.1479 200.219 27.894 200.046C27.6401 199.868 27.3143 199.779 26.9165 199.779ZM33.0801 206L30.4395 199.043H31.5693L33.0991 203.251C33.2049 203.539 33.3128 203.857 33.4229 204.204C33.5329 204.551 33.609 204.83 33.6514 205.042H33.6958C33.7466 204.83 33.8312 204.551 33.9497 204.204C34.0682 203.852 34.1761 203.535 34.2734 203.251L35.8032 199.043H36.9331L34.2861 206H33.0801ZM39.104 199.043V206H38.0503V199.043H39.104ZM38.5898 196.44C38.7633 196.44 38.9115 196.498 39.0342 196.612C39.1611 196.722 39.2246 196.895 39.2246 197.132C39.2246 197.365 39.1611 197.539 39.0342 197.653C38.9115 197.767 38.7633 197.824 38.5898 197.824C38.4079 197.824 38.2555 197.767 38.1328 197.653C38.0143 197.539 37.9551 197.365 37.9551 197.132C37.9551 196.895 38.0143 196.722 38.1328 196.612C38.2555 196.498 38.4079 196.44 38.5898 196.44ZM44.0171 198.916C44.6095 198.916 45.1174 199.047 45.5405 199.31C45.9637 199.572 46.2874 199.94 46.5117 200.414C46.736 200.884 46.8481 201.434 46.8481 202.064V202.718H42.043C42.0557 203.535 42.2588 204.157 42.6523 204.584C43.0459 205.012 43.6003 205.226 44.3154 205.226C44.7555 205.226 45.1449 205.185 45.4834 205.105C45.8219 205.025 46.1732 204.906 46.5371 204.75V205.676C46.1859 205.833 45.8368 205.947 45.4897 206.019C45.147 206.091 44.7407 206.127 44.271 206.127C43.6024 206.127 43.0184 205.992 42.519 205.721C42.0239 205.446 41.6388 205.044 41.3638 204.515C41.0887 203.986 40.9512 203.338 40.9512 202.572C40.9512 201.823 41.076 201.176 41.3257 200.63C41.5796 200.08 41.9351 199.657 42.3921 199.36C42.8534 199.064 43.395 198.916 44.0171 198.916ZM44.0044 199.779C43.4416 199.779 42.993 199.963 42.6587 200.332C42.3244 200.7 42.1255 201.214 42.062 201.874H45.7437C45.7394 201.459 45.6738 201.095 45.5469 200.782C45.4242 200.465 45.2358 200.219 44.9819 200.046C44.728 199.868 44.4022 199.779 44.0044 199.779ZM54.3003 205.987L53.0625 201.938C53.0075 201.764 52.9546 201.595 52.9038 201.43C52.8573 201.26 52.8128 201.1 52.7705 200.947C52.7324 200.791 52.6965 200.647 52.6626 200.516C52.633 200.38 52.6076 200.264 52.5864 200.167H52.542C52.5251 200.264 52.5018 200.38 52.4722 200.516C52.4425 200.647 52.4066 200.791 52.3643 200.947C52.3262 201.104 52.2839 201.269 52.2373 201.442C52.1908 201.612 52.1379 201.783 52.0786 201.957L50.7837 205.987H49.5967L47.6797 199.03H48.7715L49.7744 202.871C49.8421 203.125 49.9056 203.376 49.9648 203.626C50.0283 203.871 50.0812 204.104 50.1235 204.324C50.1701 204.54 50.2039 204.728 50.2251 204.889H50.2759C50.3013 204.783 50.3288 204.656 50.3584 204.508C50.3923 204.36 50.4282 204.204 50.4663 204.039C50.5086 203.869 50.5531 203.702 50.5996 203.537C50.6462 203.368 50.6927 203.209 50.7393 203.061L52.0215 199.03H53.1577L54.3955 203.055C54.459 203.258 54.5203 203.469 54.5796 203.689C54.6431 203.91 54.7002 204.123 54.751 204.331C54.8018 204.534 54.8377 204.716 54.8589 204.876H54.9097C54.9266 204.733 54.9583 204.555 55.0049 204.343C55.0514 204.132 55.1043 203.899 55.1636 203.645C55.2271 203.391 55.2926 203.133 55.3604 202.871L56.376 199.03H57.4487L55.5254 205.987H54.3003Z" fill="white"/>
</svg>